<?xml version="1.0" encoding="utf-8"?>
<!-- Generator: Adobe Illustrator 25.2.0, SVG Export Plug-In . SVG Version: 6.00 Build 0)  -->
<svg version="1.1" id="Layer_1" xmlns="http://www.w3.org/2000/svg" xmlns:xlink="http://www.w3.org/1999/xlink" x="0px" y="0px"
	 viewBox="0 0 108.9 141.3" style="enable-background:new 0 0 108.9 141.3;" xml:space="preserve">
<style type="text/css">
	.st0{fill:#968978;}
	.st1{fill:#FFFFFE;}
	.st2{fill:#383536;}
	.st3{fill:#4E4D4D;}
	.st4{fill:#D93326;}
	.st5{fill:#FDEDC9;}
	.st6{fill:#D9AD63;}
	.st7{fill:#D89E4F;}
	.st8{fill:#763D20;}
	.st9{fill:#B8B7B7;}
</style>
<g>
	<path class="st0" d="M108.5,128.3c0.5,0.6,0.9,1.2,1.4,1.8c0.5,1.1,0.5,2.2-0.2,3c-1.7,2-3.8,3.5-6.5,4.1c-0.1,0-0.3,0.1-0.4,0.1
		c-1.2,0.8-2.5,1.3-3.9,1.4c-1,0.1-1.8,0.6-2.6,0.8c-1.1,0.4-2.2,0.8-3.3,0.9c-1.5,0.2-2.9,0.3-4.4,0.7c-22,0-43.9,0-65.9,0
		c-1.3-0.2-2.6-0.6-4-0.6c-0.3,0-0.6,0.1-0.8-0.1c-0.7-0.9-2.1,0-2.8-1c-2.1-0.1-4-0.9-5.9-1.6c-1.2-0.5-2.5-1-3.7-1.7
		c-0.8-0.5-1.6-1.1-2.4-1.6c-1-0.6-1.5-1.6-1.7-2.6c-0.3-1.4,0.9-3.4,2.3-3.9c0.3-0.1,0.5-0.3,0.8-0.5c1.2-1,2.4-1.7,3.9-1.8
		c0,0.4,0.3,0.5,0.6,0.5c-0.2,1.2,0.6,2.2,0.9,3.3c0.1,0.5,0,1.1,0.5,1.6c0.6,0.6,1,1.4,1.4,2.2c0.6,1,0.9,2.1,2.2,2.5
		c0.2,0.1,0.4,0.1,0.5,0.3c0.5,1,1.6,1.2,2.5,1.7c0.4,0.3,0.7,0.6,1.3,0.6c1.9,0,3.8,0.1,5.6-0.1c0.4,0,1,0.2,1-0.5
		c0.8,0,1.5-0.4,2.1-0.7c0.6-0.4,1.4-0.4,1.8-1c0.3-0.4,0.6-0.4,1-0.4c1.9,0,3.7-0.1,5.6-0.1c0.7,0,1.5,0,2.2,0c1,0.3,1.9,1.1,3,1.2
		c0.4,0.6,1.1,0.3,1.6,0.4c0.1,0,0.3,0,0.4,0c0,0.5,0.3,0.6,0.7,0.6c0.7,0,1.4,0,2.1,0c0.7,0,1.4,0,2.1,0.1c0,0.5,0.3,0.6,0.7,0.6
		c0.9,0,1.8,0,2.7,0c3.3,0,6.6,0,9.9,0c1.2,0,2.4,0,3.6,0c0.4,0,0.7-0.1,0.7-0.6c0.4,0,0.8,0,1.2,0c0.5,0,1.1,0,1.6,0
		c0.4,0,0.6-0.2,0.6-0.6c0.2,0,0.4,0,0.6,0c0.4,0,1,0.2,1.1-0.5c1.4,0.2,2.6-0.8,3.9-1.1c1.1,0,2.3,0,3.4,0c0.8,0,1.5,0,2.3,0.1
		c1.4,0,2.8-0.1,4.1,1c0.9,0.8,2,1.1,3.1,1.4c0.4,0.5,0.9,0.3,1.4,0.4c1.6,0.1,3.3,0.1,4.9,0c0.5-0.1,1.1,0.3,1.2-0.6
		c0.7,0.3,1-0.4,1.4-0.6c1.1-0.7,2.2-1.4,3-2.5c0.8-1,1.4-2.2,2.1-3.3c0.3-0.4,0.8-0.7,0.6-1.3c0.9-0.1,0.5-0.8,0.6-1.2
		c0-0.2,0-0.4,0-0.6c0.8,0,0.5-0.6,0.6-1c-0.1-0.7,0.2-1.3,0.6-1.8c1.5,0.6,3,1,4.2,2.2C107.7,128.1,108.1,128.4,108.5,128.3z"/>
	<path class="st1" d="M108.9,141.3c0.6-0.8,1.2-1.6,1.8-2.4c0,0.2,0,0.4,0,0.6c0,0.6,0.2,1.4-0.1,1.7
		C110.3,141.5,109.5,141.3,108.9,141.3z"/>
	<path class="st2" d="M108.9,16.2c-0.2-3.4-1.1-6.4-3.7-8.8c-0.3-0.3-0.6-0.6-0.8-0.8c-2.8-2.6-5.7-4.8-9.4-5.7C91,0,87.1,0,83.1,0
		c-0.3,0-0.6,0.2-0.9,0.3c-4.6,1.9-8.4,4.9-11.7,8.5c-0.4,0.5-0.8,1-1.1,1.5c-0.3,0.7-0.7,0.9-1.4,0.8c-0.4,0-0.7,0-1.1-0.1
		c-4.2-0.9-8.4-1.2-12.7-1.1c-4,0.1-8,0.2-11.9,1.2c-1.7,0.4-3-0.1-4-1.6c-0.2-0.3-0.5-0.5-0.8-0.7c-2.3-1.3-4.3-3-6.4-4.5
		c-1.9-1.3-3.7-2.3-6-2.6c-1.7-0.2-3.3-0.3-5-0.3C12.6,1.8,6.3,4.6,1.3,10.2c-0.2,0.2-0.4,0.4-0.4,0.7c-0.3,2.2-1,4.4-0.8,6.7
		c0.2,3.1,0.4,6.2,1.1,9.2c1,4.1,2.7,8,4.6,11.8c0.8,1.6,2.8,2.8,2,5c0.6,3.9,0.1,7.8,0,11.6c0,1.2-0.2,0.8,0.1,3.5
		C8,58.8,8,59.3,8,59.4c0.1,0.5,0.1,0.5,0.3,1.3c0.9,3,2.2,5.9,3.4,8.7c0.7,1.5,2.4,3.6,3,4.1c0,0,0,0.1,0.1,0.2
		c1.6,1.3,0.4,0.4,1.4,1.2c0.4,0.4,0.7,0.8,0.8,0.9l0,0.1c1,0.9,2.1,1.9,3.1,2.9c1.6,1.7,3.5,2.9,5.1,4.4c0.9,0.3,1.7,0.8,2.4,1.6
		c0.3,0.1,0.6,0.3,0.9,0.4c-0.1,0.6-0.8,3.4-1.2,3.9c0.4,1.1-0.1,2-0.4,3c-0.1,0.3-0.1,0.5-0.2,0.7l-0.3,1.1c0,0.1-0.1,0.3-0.1,0.3
		c-0.1,0.2-0.1,0.3-0.2,0.6c0,0.5-0.1,0.8,0,1.2c-0.1,0.4,0.3,0.9-0.2,1.2c-0.1,0.2-0.3,0.4-0.4,0.7c0,2.5,0,5,0,7.5
		c0,0.4-0.1,0.7-0.6,0.6c-1,0.1-1.8,0.8-2.7,1.1c-0.9,0.3-1.8,0.9-2.8,0.7c-1,0.4-2.1,0.7-3,1.5c-0.8,0.9-1.7,1.4-3,1.3
		c-0.7,0.3-1.7,0.3-1.6,1.5c-0.4,0.3-0.7,0.7-1,1.1c0,0-0.1,0.1-0.1,0.1c-0.2,0.3-0.4,0.7-0.5,1c-0.1,0.2-0.2,0.4-0.3,0.6
		c-0.4,0.7-0.7,1.4-0.9,2.2c-0.1,0.2-0.2,0.4-0.2,0.7c0,0.1-0.1,0.1,0,0.2c0,0,0,0,0,0.1c-0.1,0.4-0.1,0.7-0.2,1.1
		c0,0.2,0,0.3,0.1,0.5c-0.1,0.8-0.3,1.7-0.3,2.5c0,0.6,0.2,1.1,0.3,1.7c-0.1,1,0,1.9,0.3,2.8c0,0.1,0.1,0.1,0.1,0.2
		c0,1,0.6,1.9,0.9,2.9c0.1,0.5,0,1.1,0.5,1.6c0.6,0.6,1,1.4,1.4,2.2c0.6,1,0.9,2.1,2.2,2.5c0.2,0.1,0.4,0.1,0.5,0.3
		c0.5,1,1.6,1.2,2.5,1.7c0.4,0.3,0.7,0.6,1.3,0.6c1.9,0,3.8,0.1,5.6-0.1c0-0.8,0.6-0.5,1-0.5c0.8,0,1.5-0.4,2.1-0.7
		c0.6-0.4,1.4-0.4,1.8-1c0.3-0.4,0.6-0.4,1-0.4c1.9,0,3.7-0.1,5.6-0.1c0.6,0,0.9,0,1,0c0,0,0,0,0.1,0c0.5,0,0,0,1.1,0
		c1,0.3,1.9,1.1,3,1.2c0.5-0.1,1.2-0.7,1.5,0.1c0.1,0.1,0.3,0.2,0.4,0.3c0.7,0,1.5,0,2.2,0c0.2,0,0.3,0,0.5,0.1
		c0.7,0.1,1.9,0.4,2.6,0.6c0.8,0,1.6,0,2.5,0c0.4,0,0.7,0.1,0.7,0.6c3.3,0,6.6,0,9.9,0c0-0.6,0.4-0.6,0.8-0.6c1.2,0,2.4,0,3.6,0
		c0.4-0.1,0.9-0.4,1.3-0.5c0.1-0.1,0.2-0.1,0.4-0.1c0.5,0,1.1,0,1.6,0c0.2-0.1,0.5-0.3,0.7-0.4c0.2-0.4,0.6-0.2,1-0.2
		c1.4,0.2,2.6-0.8,3.9-1.1c0,0,0-0.1,0-0.1c0.7-1,1.6-0.3,2.5-0.5c0.4-0.1,0.9-0.2,0.9,0.5c0.8,0,1.5,0,2.3,0.1c1.4,0,2.8-0.1,4.1,1
		c0.9,0.8,2,1.1,3.1,1.4c0.6-0.2,1.2-0.7,1.4,0.4c1.6,0.1,3.3,0.1,4.9,0c0.1-0.9,0.8-0.4,1.2-0.6c0.7,0.3,1-0.4,1.4-0.6
		c1.1-0.7,2.2-1.4,3-2.5c0.8-1,1.4-2.2,2.1-3.3c0.3-0.4,0.8-0.7,0.6-1.3c0.1-0.4-0.4-1.2,0.6-1.2c0-0.2,0-0.4,0-0.6
		c0-0.4-0.3-1,0.6-1c-0.1-0.7,0.2-1.3,0.6-1.8c-0.5-0.7-0.1-1.4-0.2-2.1c0-1.3,0-2.5,0-3.8c-0.1-0.4-0.3-1.1-0.4-1.5
		c-0.2-0.4,0-0.8,0-1.3c-0.2-1-0.8-1.8-1.3-2.7c-0.3-0.5-0.7-1-1-1.5c-0.3-0.5-0.7-0.8-1.1-1.1c-0.3-0.2-0.4-0.3-0.4-0.6
		c-0.5-0.6-1.3-0.6-1.8-1.2c-0.3,0-0.7,0.2-0.9-0.2l-0.1-0.1c-0.6-0.1-1.2-0.2-1.8-0.3c-0.8,0-1.7,0.3-2.4-0.2c-0.2,0-0.3,0-0.5,0
		c-0.4,0.3-0.5,0.1-0.5-0.4c0-1.1,0-2.1,0-3.2c-0.2-0.9-0.7-1.8-0.7-2.7c-0.5,0-0.2-0.4-0.3-0.6c-0.4,0-0.8-0.2-0.9-0.6
		c-0.3-1.1-1-1.7-1.9-2.2c-0.2-0.1-0.4-0.4-0.5-0.6c-1-0.2-0.5-0.7-0.3-1.2c-0.1-0.5-0.2-1-0.2-1.6c-1-0.1-0.5-0.7-0.3-1.2
		c-0.3-1.6-0.9-3.1-1.5-4.6c-0.2-0.4-0.5-0.7-0.7-1.1c-0.1-0.5-0.6-1.1,0.4-1.2c-0.4-1.1-0.7-2.2-0.4-3.3c-0.7,0.1-1.3,1.4-0.9,1.9
		c0.4,0.5,0.4,0.9-0.1,1.2c-0.3,0.2-0.3,0.5-0.3,0.9c0.3,2,0.7,3.9,1.6,5.7c0.4,0.8,0.6,1.7,0.7,2.6c0.1,0.5,0,1.1-0.7,0.7
		c-1.2-0.6-2.4-0.5-3.7-0.5c-1.2,0-2.4,0-3.7,0c-0.9,0-1.5-0.5-1.4-1.4c0.1-1.3-0.3-2.6,0.3-3.8c0.1-0.2,0-0.5-0.2-0.6
		c-1.2-0.7-2.1-2-4-1.9c0.9-0.4,1.6-0.6,2.3-0.9c3.5-1.3,6.7-3.1,9.8-5.2c0.3-0.2,0.5-0.5,0.9-0.4c1.3-1.4,2.9-2.5,4.2-3.9
		c1.1-1.1,2.3-2.1,3.3-3.4c1.4-1.8,2.7-3.7,4-5.5c2.2-3.1,3.8-6.5,4.6-10.2c0.7-3.6,1-7.2,1.1-10.8c0-1.1-0.2-2.2-0.7-3.3
		c-0.9-1.8-0.7-3.1,0.8-4.5c0.6-0.6,1-1.2,1.4-2c1-2,1.6-4.2,2.7-6.2c0.6-1.1,1.2-2.2,1.5-3.4C108.5,25.3,109.1,20.8,108.9,16.2z
		 M9.4,40.1c-1.1-1.9-2.3-3.8-3.2-5.7c-1.6-3.4-2.7-7-3.3-10.7c-0.4-2.4-0.8-4.8-0.4-7.1c0.5-3.4,2.3-6.2,5.3-8.3
		c2.8-2,6.1-2.7,9.4-3.2c1.5-0.2,3.1-0.1,4.6-0.3c1.9-0.2,3.9-0.2,5.6,1c0.1,0.1,0.2,0.1,0.3,0.1c2.8,0.2,4.4,2.5,6.5,3.8
		c1.1,0.7,2.1,1.6,3.1,2.4c0.2,0.2,0.5,0.3,0.5,0.6c0,0.3-0.4,0.3-0.7,0.4c-1.6,0.5-3.3,1.1-4.8,1.8c-1.6,0.8-3.2,1.6-4.7,2.7
		c-1.3,0.9-2.6,1.7-3.8,2.8c-1.2,1.1-2.2,2.3-3.2,3.4c-1.2,1.3-2.5,2.5-3.8,3.7c-1.2,1-2.2,2-2.7,3.4c-0.1,0.1-0.1,0.3-0.3,0.4
		c-2.1,2.4-3.1,5.4-4.2,8.3C9.6,39.8,9.6,39.9,9.4,40.1z M27.4,98.2c0-1.8,0.6-3.7,1.1-5.4c0.1-0.3,0.2-0.6,0.4-0.9
		c0.9-1.4,0.9-1.6,1.1-2.8c0.1-0.5,0.6-2.5,0.5-2.9c0.6,0.3,1.3,0.7,1.9,1c1.7,0.8,3.4,1.5,5.2,2.1c0.3,0.1,0.8,0.1,1.1,0.6
		c-1.3,0-1.7,1.2-2.5,1.8c-0.5,0.4-0.3,1.2-0.2,1.7c0.2,0.9,0.2,1.8,0.1,2.8c0,1.6,0,3.1,0.2,4.6c0.2,1.8-0.8,2.8-2.2,3.4
		c-2.2,1.1-3.7,2.8-4.4,5.1c-0.2,0.6,0,1.5-1.1,1.5c-1.1-0.1-0.9-1-1-1.7C27,105.5,27.3,101.8,27.4,98.2z M49.5,92.2
		c1.4,0,2.8,0,4.2,0c2,0,4.1,0,6.1,0c0.5,0,1.1,0,1.6,0c0.4,0,0.6,0.1,0.6,0.6l2.7,0.1c1.7-0.3,3.3,0.6,4.9,0.4
		c0.4-0.1,0.4,0.3,0.4,0.6c0,0.3-0.1,0.4-0.4,0.6c-1.6,0.7-3.4,0.2-4.9,0.7c-2.6,0.9-5.2,0.3-7.8,0.5c-2.7,0.1-5.3,0-8,0
		c-0.3,0-0.7,0.1-0.9-0.3c-0.2-0.3-0.5-0.2-0.8-0.2c-0.8,0-1.6,0-2.4,0c-0.7,0-1.4,0.2-2-0.5c-0.2-0.3-0.9-0.1-1.4-0.1
		c-0.2,0-0.4,0-0.4-0.3c0-0.3,0.2-0.3,0.4-0.3c1.5,0,2.8-0.7,4.2-1c0.5-0.1,1,0,1.5,0c0.5,0,1,0,1.6-0.1
		C48.7,92.2,49.1,92.2,49.5,92.2z M46.1,92.2c-0.6,0-1.2,0.1-1.8,0.1c-0.1,0.9-0.7,0.4-1.1,0.5c-1.1,0.2-2.3,0.6-3.4,0.4
		c-0.3,0-0.7,0.1-1-0.3c-0.1-0.2-0.5-0.1-0.5-0.4c0-0.3,0.3-0.3,0.5-0.3c0.5,0.1,0.5-0.6,1-0.7c0.1-0.9,0.7-0.4,1.1-0.5
		c1.8-0.3,3.5,0.1,5.2,0.4c0.2,0,0.4-0.1,0.4,0.2C46.6,91.9,46.5,92.1,46.1,92.2z M22.8,108.3c0.7-0.6,1.5-0.8,2.3-0.8
		c0.9-0.1,1.5,0.9,1.3,1.8c-0.2,1.3-1,1.8-2,1.7c-0.7-0.1-1.2-0.5-1.8-0.7c-0.5-0.1-0.2-0.5-0.3-0.8C22.1,109,22.4,108.7,22.8,108.3
		z M36.4,131.9c-0.1,1.3-1.1,2.1-2.7,2.1c-1.8,0-3.6,0-5.3,0c-0.2,0-0.4-0.1-0.5,0c-0.5,1.3-1.8,1.3-2.7,2c-0.8,0.7-1.5,0.6-2.3,0.1
		h-0.1l0,0.1c0,0.3,0,0.6-0.5,0.6c-1,0-1.9,0-2.9,0c-0.4,0-0.4-0.3-0.4-0.5c-1.8-0.1-3-1.2-4.2-2.3c-1.3-1.2-2.1-2.7-2.7-4.3
		c-0.5-1.4-1.4-2.7-1.3-4.4c0-0.4-0.1-0.8-0.1-1.1c-0.2-1.9-0.5-0.6-0.5-1c0-0.7,0-1.4,0-2.1c0-0.5-0.3-1.1,0.4-1.4
		c0.2-1.7,0.9-3.3,1.8-4.8c0.3-0.5,0.8-0.8,1.2-1.2c0.1-1.3,0.5-1.6,1.6-2.1c2-0.8,3.9-0.7,5.9,0.2c2.5,1.1,4.8,2.6,6.4,4.7
		c1.1,1.4,2,3.1,2.1,5.1c0,0.6,0.5,0.9,1,1.2c0.2-0.6,0.3-0.7,0.6-0.2c0.2,0.3,0.8,0.3,0.6,0.8c1.2,0.1,2.2,0.9,3.5,0.8
		c0.9-0.1,1.1,0.7,1.1,1.5c0,1.7,0,3.3,0,4.9C36.3,130.8,36.4,131.3,36.4,131.9z M35,122.4c-1.2-0.1-2.3-0.6-2.9-1.7
		c-0.6-1.1-1.2-2.2-1.7-3.4c-0.6-1.6-0.6-3.1-0.4-4.5c0.3-2,0.5-4.2,2-5.8c1.7-1.8,3.8-1.9,6-1.8c2.3,0.1,4.2,1.1,5.9,2.7
		c0.8,0.8,1.5,1.7,1.7,2.8c0.2,1.1,0.5,2.1,0.4,3.2c-0.1,2.3-0.6,4.5-2.6,6.1c-0.6,0.5-1.2,1.1-1.8,1.7c-0.6,0.6-1.5,0.5-2.2,0.6
		C38,122.5,36.5,122.6,35,122.4z M90.7,119.3c-0.3-0.5-0.5-1,0.4-1.2c0-0.6,0.1-1.2,0.1-1.7c0-0.5,0-1.1,0-1.6c0-0.7,0.1-1.4,0-2.2
		c-0.2-1.4,0.8-2,1.8-2c1.6,0,3.2,0.2,4.3,1.6c0.3,0.3,1,0.3,0.9,1c0.1,0.4,0.9,0.3,0.6,1c1.5,1.3,1.8,3.1,2.2,4.8
		c0.1,0.2,0.2,0.5,0.2,0.7c0.7,0.2,0.3,0.8,0.4,1.2c0,0.7,0,1.4,0,2.1c0,0.4,0.3,1.1-0.6,1c-0.2,0.1-0.2,0.2-0.1,0.4
		c0.4,0.4,0.1,0.9,0.1,1.4c-0.1,0.4,0.3,1-0.5,1c-0.2,1.4-0.7,2.7-1.4,3.9c-0.9,1.5-1.8,3-3.3,4c-1,0.8-2.1,1.5-3.4,1.4
		c0,0.4-0.3,0.5-0.7,0.5c-0.9,0-1.8,0-2.7,0c-0.4,0-0.6-0.1-0.6-0.6c-0.1,0-0.1,0-0.2,0c-1,0.6-1.9-0.1-2.5-0.6
		c-1.3-1.1-2.5-1.9-4.3-1.8c-1.6,0.1-3.3,0-4.9,0c-1,0-1.2-0.2-1-1.2c0.3-1.9,0.3-1.8,2.3-1.9c1.9-0.1,3.5-1,5.1-1.9
		c0.7-0.4,1.3-0.8,1.9-1.2c0.3-0.2,0.6-0.2,0.9,0c0.2-0.8,1.1-0.9,1.5-1.6c0.1-0.1,0.3-0.1,0.3-0.2c0.3-1.5,1.7-2.1,2.3-3.4
		C90,121.3,90.5,120.4,90.7,119.3z M75.7,98.7c1.5,0,3,0,4.5,0c1.1,0,2.2-0.1,3.2,0.6c0.4,0.1,1.1-0.3,1.1,0.6
		c1.4,0.5,2.5,1.2,3.2,2.6c0.3,0.8,0.6,1.7,1.4,2.2c0.7,0.5,0.3,1.2,0.4,1.7c0,2.8-0.1,5.6,0.1,8.3c0.1,1.4-0.8,2.5-0.6,3.8
		c-0.1,0.4,0.4,1.1-0.5,1.1c-0.1,0.6-0.1,1.2-0.7,1.5c-0.3,0.2-0.3,0.5-0.4,0.8c-0.1,0.7-0.5,1.2-1.2,1.3c-0.5,0.1-0.7,0.3-0.7,0.8
		c0,0.7-0.7,0.8-1.1,1.2c-0.2,0.2-0.2,0.4-0.3,0.7c-0.5,0.4-1.1,0.6-1.3,1.4c-0.1,0.3-0.5,0.1-0.8,0.1c-0.5,0-1-0.1-1.4,0.6
		c-0.2,0.4-0.9,0.4-1.4,0.4c-0.4,0.1-0.8,0.1-1.2,0.1c-0.3,1-1.1,0.4-1.7,0.5c-0.5,0.1-0.4-0.4-0.4-0.8c0-0.2,0-0.5,0-0.7
		c0-0.5,0-0.9,0-1.4c-0.1-0.9-0.1-1.7,1.3-1.6c0.5,0.1,0.9-0.8,1.5-0.6c0-0.9,0.7-0.4,1.1-0.5c0.6-0.2,1.1-0.4,1.3-1.1
		c0-0.1,0.1-0.3,0.2-0.3c1.9-0.5,2.2-2.6,3.4-3.7c0,0,0.1-0.1,0.1-0.1c-0.2-1.1,0.7-2,0.7-3c0-2.3-0.1-4.7,0-7
		c0.1-2.1-1-3.5-2.6-4.4c-0.6-0.4-1.5-0.5-2.3-0.5c-1.5,0-3,0-4.6,0c-0.4,0-0.6-0.1-0.6-0.5c0-1.1,0-2.3,0-3.4
		C75.1,98.8,75.3,98.7,75.7,98.7z M83.7,113.3c0.1,0.5-0.1,0.9-0.6,1c-0.5,0.1-0.8-0.2-0.9-0.6c-0.4-1.2-0.4-2.6-0.9-3.8
		c-0.5-1-0.9-2.1-1.7-2.9c-0.4-0.4-0.4-1.1-1-1.4c-0.3-0.2-0.1-0.5,0.3-0.7c2.8-0.8,4.4,0.9,4.5,3.6c0,0.4,0,0.7,0,1.3
		C83.3,110.8,83.4,112.1,83.7,113.3z M77,106.2c1,0.8,1.9,1.5,2.6,2.6c1.3,1.8,1.5,3.8,1.4,5.8c-0.1,1.6-0.3,3.2-1.1,4.8
		c-1.2,2.3-4.8,3.9-7.2,3.4c-2.3-0.4-4.1-1.5-5.9-2.9c-2.1-1.7-2.2-4-2-6.4c0.2-2.1,1-4,2.4-5.6c1.7-1.9,3.7-2.8,6.1-3
		C74.7,104.9,75.9,105.3,77,106.2z M73.5,96.3c0,2.1,0,4.2,0,6.2c0,1.1-1.1,1.1-1.6,1c-1.2-0.1-2.3,0.4-2.9,0.9
		c-1.4,0.9-3,1.9-3.8,3.6c-0.6,1.2-1,2.5-1.6,3.7c-0.7,1.4-0.3,2.7-0.4,4.1c0.9,0.1,0.4,0.8,0.5,1.2c-0.1,1,0.9,1.6,1.1,2.5
		c0.6,1.7,2.1,2.7,3.4,3.5c0.8,0.5,1.8,1.6,3.2,1.2c0.9,0,1.8-0.3,2.5,0.6c0.3,0.4,0.3,0.3-0.3,0.6c0,2.6,0,5.2,0,7.8
		c0.1,0.7-0.1,1.1-0.9,0.9c-0.2,0.2-0.1,0.6-0.4,0.5c-1-0.2-1.6,0.7-2.6,0.7c0.1,0.4-0.2,0.6-0.6,0.6c-0.5,0-1,0-1.6,0
		c-1.5,0.6-3.1,0.4-4.6,0.4c-5.6,0-11.2,0-16.8,0c-1.1,0-2.2,0-3.2-0.9c-0.1-0.1-0.4-0.1-0.6-0.1c-1.1,0.1-1.9-0.5-2.7-1
		c-0.3-0.2-0.6-0.1-1-0.2c-0.7-0.3-1.1-0.6-1.1-1.4c0-2.4,0-4.7,0-7.1c0-0.4-0.1-0.8,0.5-0.8c0.7-0.3,1.4-0.7,2.2-0.7
		c0-0.9,0.7-0.4,1.1-0.5c0.8,0,1.3-0.6,1.7-1.1c0.7-0.9,1.8-1.2,2.4-2.1c0.2-0.2,0.2-0.4,0.3-0.7c0.1-0.4-0.3-1.1,0.6-1.1
		c-0.1-0.8,0.6-1.2,0.8-2c0.3-2.2,0.7-4.4-0.5-6.5c-0.5-0.8-0.7-1.7-1.2-2.5c-0.5-0.9-1.3-1.3-2.1-1.7c-0.8-0.4-1.2-1.1-1.5-1.9
		c-0.8-0.1-1.7,0.2-2.5-0.3c-0.4-0.1-0.9,0.3-1.2-0.3c-0.5,0-0.6-0.3-0.6-0.7c0-2.3,0-4.6,0-6.9c0-0.3,0-0.7,0.5-0.7
		c0.4,0,0.7,0,0.7,0.6c0.8,0,1.4,0.6,2.2,0.4c0.5,0.2,1.3-0.5,1.5,0.5c1.9-0.2,3.7,1,5.7,0.7c0.2,0,0.3,0,0.5,0c0.6,0,1.2,0,1.7,0
		c0.4,0,0.7,0.1,0.6,0.5c3.6,0.1,7.3,0.1,10.9,0c0-0.5,0.3-0.5,0.7-0.5c0.7,0,1.4,0,2.1,0c1.6,0.1,3.1-0.9,4.7-0.6
		c0.9-0.9,2.1-0.9,3.2-0.9C73.2,95.6,73.5,95.7,73.5,96.3z M72.7,92.2c0.3,0.5,0.3,0.9-0.5,1c-0.9,0.1-1.7-0.5-2.6-0.4
		c-0.4,0-0.8,0-1.1,0s-0.6-0.1-0.6-0.5c-1.2,0.2-2.1-0.9-3.3-0.6h-2.3c0.7-0.2,1.5-0.5,2.3-0.4c2.1-0.8,4.2-0.8,6.2-0.1
		C71.5,91.3,72.3,91.4,72.7,92.2z M96.4,61.9c-1.1,3.4-2.8,6.5-4.9,9.4c-1.3,1.8-2.7,3.4-4.3,4.9c-3.6,3.6-7.7,6.3-12.3,8.5
		c-4.4,2-8.9,3.3-13.7,4C58.9,89,56.7,89,54.1,89c-3.5,0.2-7.3-0.3-11.1-1.2c-3.1-0.8-6.2-1.7-9.1-3.2c-2.7-1.3-5.3-2.8-7.7-4.5
		c-0.9-0.7-1.8-1.4-2.7-2.2c-3.6-3.3-6.7-6.9-8.9-11.3c-2.3-4.5-3.6-9.3-3.7-14.5c-0.1-4,0.3-8,1.6-11.8C14,36.2,16.1,32.4,19,29
		c3.8-4.5,8.3-8,13.5-10.8c2.3-1.2,4.8-2.1,7.2-2.9c4.1-1.4,8.4-1.9,12.7-2.2c5.3-0.3,10.4,0.3,15.4,1.7c2.9,0.8,5.8,1.9,8.5,3.3
		c2.4,1.3,4.7,2.6,6.8,4.3c2.5,1.9,4.8,4.1,6.8,6.6c1.7,2.1,3.3,4.3,4.5,6.8c2,3.9,3.1,8.1,3.5,12.5C98.5,53,97.9,57.5,96.4,61.9z
		 M106.9,19.5c-0.8,3-1,6.1-1.9,9.1c-1.1,3.5-2.6,6.8-4.4,9.9c-0.3,0.5-0.6,1-0.9,1.4c0,0-0.1,0.1-0.2,0.1c-0.8-2.1-1.6-4.2-2.6-6.1
		c-0.1-0.3-0.3-0.5-0.6-0.6c-1.2-0.5-1.9-1.5-2.3-2.6c-1.3-2.9-3.2-5.4-5.4-7.6c-2.3-2.3-5.1-4.1-7.8-5.8c-2.7-1.6-5.4-3.2-8.4-4.1
		c-0.3-0.1-0.6-0.2-0.9-0.3c0.7-1.3,1.9-2,3-2.8c2.1-1.7,4.2-3.3,6.6-4.7c0.2-0.1,0.5-0.2,0.6-0.5c0.6-1.7,2-2.1,3.5-2.3
		c3.4-0.6,6.7,0.1,9.9,0.9c2.8,0.7,5.3,2.1,7.4,4c2.6,2.3,4,5.4,4.3,8.9C106.8,17.4,107.2,18.4,106.9,19.5z"/>
	<path class="st3" d="M30.3,86c1.7,0.8,0.5,0.3,2.2,1.1c1.7,0.8,3.4,1.5,5.2,2.1c0.3,0.1,0.8,0.1,1.1,0.6c-1.3,0-1.7,1.2-2.5,1.8
		c-0.5,0.4-0.3,1.2-0.2,1.7c0.2,0.9,0.2,1.8,0.1,2.8c0,1.6,0,3.1,0.2,4.6c0.2,1.8-0.8,2.8-2.2,3.4c-2.2,1.1-3.7,2.8-4.4,5.1
		c-0.2,0.6,0,1.5-1.1,1.5c-1.1-0.1-0.9-1-1-1.7c-0.8-3.6-0.5-7.3-0.4-10.9c0-1.8,0.6-3.7,1.1-5.4c0.1-0.3,0.3-0.6,0.4-0.9
		c0.9-1.4,0.7-1.5,0.9-2.7c0.1-0.5,0-0.1,0.1-0.4c0-0.5,0-0.1,0-0.4C30.1,87.5,30.6,86.9,30.3,86z"/>
	<path class="st3" d="M83.5,84.5c-0.7,0.1-1.3,1.4-0.9,1.9c0.4,0.5,0.4,0.9-0.1,1.2c-0.3,0.2-0.3,0.5-0.3,0.9c0.3,2,0.7,3.9,1.6,5.7
		c0.4,0.8,0.6,1.7,0.7,2.6c0.1,0.5,0,1.1-0.7,0.7c-1.2-0.6-2.4-0.5-3.7-0.5c-1.2,0-2.4,0-3.7,0c-0.9,0-1.5-0.5-1.4-1.4
		c0.1-1.3-0.3-2.6,0.3-3.8c0.1-0.2,0-0.5-0.2-0.6c-1.2-0.7-2.1-2-4-1.9c0.9-0.4,1.6-0.6,2.3-0.9c3.5-1.3,6.7-3.1,9.8-5.2
		c0.3-0.2,0.5-0.5,0.9-0.4C84,83.4,83.7,83.9,83.5,84.5z"/>
	<path class="st3" d="M16.5,109.1c-0.8,0.9-1.7,1.4-3,1.3C14.5,109.9,15.4,109.3,16.5,109.1z"/>
	<path class="st0" d="M84,88c-0.2,0.3,0.1,0.9-0.5,1c-0.1-0.5-0.6-1.1,0.4-1.2C83.9,87.9,83.9,87.9,84,88z"/>
	<path class="st4" d="M97.2,109.8c-0.3,0-0.7,0.2-0.9-0.2"/>
	<path class="st3" d="M74.1,135.7c0,0,0-0.1,0-0.1c0.7-1,1.6-0.3,2.5-0.5c0.4-0.1,0.9-0.2,0.9,0.5C76.3,135.7,75.2,135.7,74.1,135.7
		z"/>
	<path class="st3" d="M47.5,137.9c0.9,0,1.8,0,2.7,0c0.4,0,0.7,0.1,0.7,0.6c-0.9,0-1.8,0-2.7,0C47.8,138.5,47.5,138.4,47.5,137.9z"
		/>
	<path class="st3" d="M42.6,137.3c0.7,0,1.4,0,2.1,0c0.4,0,0.7,0.1,0.7,0.6c-0.7,0-1.4,0-2.1,0C42.9,137.9,42.6,137.8,42.6,137.3z"
		/>
	<path class="st3" d="M40.6,136.9c0.6-0.1,1.3-0.8,1.6,0.4C41.7,137.2,41,137.5,40.6,136.9z"/>
	<path class="st3" d="M86.9,138.1c0.6-0.2,1.2-0.7,1.4,0.4C87.8,138.4,87.3,138.7,86.9,138.1z"/>
	<path class="st3" d="M101.6,130.2c0.1-0.4-0.4-1.2,0.6-1.2C102.1,129.4,102.4,130.1,101.6,130.2z"/>
	<path class="st3" d="M93.3,138.5c0.1-0.9,0.8-0.4,1.2-0.6C94.4,138.8,93.7,138.4,93.3,138.5z"/>
	<path class="st3" d="M102.2,128.4c0-0.4-0.3-1,0.6-1C102.7,127.8,102.9,128.4,102.2,128.4z"/>
	<path class="st3" d="M24,138.4c0-0.8,0.6-0.5,1-0.5C25,138.7,24.4,138.5,24,138.4z"/>
	<path class="st3" d="M98.1,48.4c-0.4-4.4-1.5-8.6-3.5-12.5c-1.2-2.4-2.8-4.7-4.5-6.8c-2-2.5-4.3-4.7-6.9-6.6
		c-2.1-1.6-4.5-3-6.8-4.3c-2.7-1.5-5.6-2.5-8.5-3.3c-5-1.4-10.2-2-15.4-1.7c-4.3,0.3-8.6,0.8-12.7,2.2c-2.5,0.8-4.9,1.7-7.2,2.9
		C27.3,21,22.7,24.5,19,29c-2.8,3.4-4.9,7.2-6.4,11.4c-1.3,3.8-1.7,7.8-1.7,11.8c0.1,5.1,1.4,9.9,3.7,14.5c2.2,4.4,5.3,8,8.9,11.3
		c0.8,0.8,1.7,1.5,2.7,2.2c2.5,1.7,5,3.2,7.7,4.5c2.9,1.4,6,2.4,9.1,3.2c3.8,1,7.6,1.4,11.1,1.2c2.7,0,4.9,0,7.1-0.3
		c4.8-0.7,9.3-2,13.7-4c4.6-2.1,8.7-4.9,12.3-8.5c1.6-1.6,3-3.2,4.3-5c2.2-2.9,3.8-6,4.9-9.4C97.9,57.5,98.5,53,98.1,48.4z M17,51.7
		c-1.9-1.3-1.9-1.4-0.3-2.9c0.9-0.9,1.9-1.6,3-2.2c3.4-2,7-3.5,10.1-3.4c5.3,0,9.1,1.6,12.4,4.3c0.9,0.7,1.6,1.5,2.5,2.3
		c0.5,0.4,0.6,0.7,0,1.2c-1.5,1.4-1.2,1.7-3,0c-2.6-2.5-5.5-4.2-9-4.7c-2.9-0.4-5.8,0.1-8.5,1.4c-2.3,1.1-4.5,2.5-6.4,4.2
		C17.5,51.9,17.3,51.9,17,51.7z M20.3,61.9c-0.6-0.7-0.5-1.7,0.3-2.1c2.3-1.3,4.7-2.4,7.9-2.4c2,0,4.1,1,5.7,2.9
		c0.6,0.8,0.6,1.6-0.1,2.2c-0.6,0.6-1.6,0.5-2.2-0.3c-1.4-1.9-3.3-2.1-5.4-1.7c-1.5,0.3-2.9,1-4.2,1.7
		C21.6,62.6,20.9,62.6,20.3,61.9z M36.6,70.9c-0.6,0.6-1.5,0.6-2.2,0c-1-0.9-2.2-0.9-3.3-0.5c-2,0.6-3.7,1.8-5.5,2.6
		c-1.2,0.6-2.4,0-2.4-1.2c0-0.6,0.2-1.1,0.7-1.3c2-1,3.9-2.2,6-2.9c0.8-0.3,1.7-0.4,2.5-0.4c1.6,0,3,0.4,4.1,1.6
		C37.1,69.4,37.2,70.2,36.6,70.9z M69.7,61.6c-0.2,0.8-0.5,1.6-0.7,2.3c-1.1,3.7-2.4,7.2-4.6,10.3c-2,2.9-4.5,5.2-8.1,5.9
		c-0.6,0.1-1.2,0-1.9,0.1c-4.7-0.3-8.1-2.6-10.6-6.5c-2.3-3.7-3.5-7.8-4.7-12c-0.1-0.4-0.3-0.8,0.3-1.1c0.4-0.2,0.6-0.3,0.9,0.2
		c1,1.7,2.7,2.4,4.5,2.8c3.2,0.7,6-0.4,8.7-2c0.8-0.5,0.7-1.2-0.1-1.9c-1.3-1.1-2.7-2-4-3.1c-0.5-0.4-1.1-1-0.7-1.8
		c0.4-0.7,1.3-0.8,1.9-0.7c1.1,0.1,2.1,0.4,3.1,1c0.7,0.4,1.1,0.3,1.8,0c1.2-0.7,2.5-1.2,3.9-0.8c1.1,0.3,1.4,1.1,0.6,1.9
		c-0.8,0.8-1.8,1.4-2.6,2.1c-0.6,0.4-1.2,0.9-1.7,1.3c-0.5,0.4-0.9,1-0.2,1.6c1.5,1.2,3,2.2,4.9,2.6c2.2,0.4,3.9-0.3,5.7-1.4
		c0.9-0.6,1.9-1.1,2.5-2c0.2-0.3,0.4-0.3,0.7-0.1C69.5,60.9,69.8,61.1,69.7,61.6z M87,74c-0.4,0.8-1.3,1-2.2,0.5
		c-1.3-0.6-2.6-1.3-3.9-2c-0.7-0.4-1.4-0.6-2.2-0.8c-1.1-0.2-2,0-2.8,0.7c-0.7,0.6-1.5,0.6-2.1,0c-0.6-0.6-0.5-1.5,0.1-2.1
		c1.1-1.2,2.5-1.6,4-1.7c1.7,0,3.1,0.5,4.5,1.2c1.3,0.7,2.6,1.3,3.8,2C87.1,72.4,87.4,73.2,87,74z M90.2,63.2
		c-0.4,0.8-1.2,1.1-2,0.6c-1.2-0.6-2.3-1.2-3.6-1.6c-2.4-0.7-4.5-0.7-6.2,1.5c-0.5,0.7-1.5,0.8-2.1,0.2c-0.6-0.5-0.7-1.4-0.2-2.1
		c1.6-2.1,3.8-3,5.9-3.1c3.2,0.1,5.5,1.1,7.8,2.5C90.5,61.7,90.6,62.5,90.2,63.2z M92.6,50.4c-1.5,1.5-1.5,1.6-3.1,0.3
		c-2.4-1.9-5.1-3.5-8.1-4.2c-4.1-1-7.9-0.4-11.5,1.9c-1.5,0.9-2.7,2.2-4,3.3c-0.5,0.4-0.8,0.6-1.3,0c-0.1-0.1-0.2-0.1-0.3-0.2
		c-1.3-1-1.3-1.1-0.2-2.2c2.9-2.9,6.3-5,10.4-5.8c1.1-0.2,2.1-0.4,2.8-0.4c4.1,0.1,7.4,1.2,10.5,2.9c1.7,1,3.2,2.2,4.8,3.4
		C93,49.7,93,50,92.6,50.4z"/>
	<path class="st4" d="M71.4,124.5c0,0-0.1-0.3-0.1-0.4c-1.3,0.4-2.3-0.6-3.2-1.2c-1.3-0.8-2.8-1.8-3.4-3.5c-0.2-0.6-0.7-1.1-1-1.7
		c0,0,0-0.1,0-0.1c0-1-0.3-1.9-0.6-2.8c0-0.1-0.1-0.2-0.2-0.2c0-0.9-0.1-1.9,0.4-2.9c0.6-1.2,1-2.5,1.6-3.7c0.9-1.7,2.4-2.6,3.8-3.6
		c0.7-0.5,1.8-1,2.9-0.9c0.5,0.1,1.6,0.1,1.6-1c0-2.1,0-4.2,0-6.2c0-0.6-0.3-0.8-0.8-0.8c-0.9,0-1.8,0.1-2.6,0.5c0,0-0.1,0-0.1,0
		c-0.3,0.1-0.6,0.2-1,0.4c-1.5-0.1-2.8,0.7-4.3,0.7c0,0,0,0.1,0,0.1c-0.5,0-1,0.1-1.4,0.1c-0.6,0.1-1.2,0.2-1.8,0.3
		c-3.2,0.1-6.3,0.1-9.5,0c0-0.1-0.1-0.1-0.2-0.1c-1.5-0.3-2.9-0.4-4.4-0.5c-0.1,0-0.3,0.1-0.3,0.1c-1.2-0.1-2.4-0.6-3.6-0.7
		c-0.5-0.2-1.1-0.3-1.7-0.4c-0.6-0.1-1.3-0.1-1.9-0.4c-0.1,0-0.2,0-0.3,0c-0.3-0.1-0.5-0.2-0.8-0.2c-0.6,0-0.6,0.4-0.6,0.9
		c0,2.3,0,4.6,0,6.9c0.3,0.6,0.8,0.3,1.2,0.3c0-0.1,0-0.2,0-0.2c-1-0.1-0.5-0.8-0.6-1.3c0.1-0.8-0.3-1.6,0.3-2.4
		c0-1.4,1.1-2.6,2.2-1.9c0.7,0.4,1,1.2,1.2,2c0.3,1.4-0.1,2.8-0.5,4.1c0.3,0.8,0.7,1.5,1.5,1.9c0.8,0.4,1.5,0.8,2.1,1.7
		c0.5,0.8,0.8,1.7,1.2,2.5c0,0.1,0,0.1,0.1,0.2c-0.1,1,0.1,1.9,0.3,2.9c0.2,1.9-0.2,3.8-1,5.5c-0.4,0.8-1,1.6-1.1,2.4
		c-0.6,0.5-1.3,0.8-1.7,1.4c-0.4,0.5-0.9,1.1-1.7,1.1c0,1-0.7,0.5-1.1,0.5c-0.8-0.1-1.5,0.4-2.2,0.7c0,1.9,0,3.9,0,5.8
		c0,0.8-0.3,1.6,0.5,2.3c0.2,0.2,0,0.8,0.1,1.2c0.3,0,0.7-0.1,1,0.2c0.8,0.6,1.6,1.1,2.7,1c0.2,0,0.5,0,0.6,0.1
		c0.9,0.8,2,0.9,3.2,0.9c5.6,0,11.2,0,16.8,0c1.6,0,3.1,0.2,4.6-0.4c-0.1-0.5,0.2-0.6,0.6-0.6c0.5,0,1,0,1.6,0
		c0.9,0,1.6-0.9,2.6-0.7c0.2,0.1,0.2-0.4,0.4-0.5c-0.1-0.6,0.3-0.9,0.9-0.9c0-2.6,0-5.2,0-7.8C72.8,124.9,72.2,124.5,71.4,124.5z
		 M59.2,123c0,0.4-0.3,0.4-0.7,0.4c-1.7,0.1-3.3-0.1-4.8-1.3c-1.8-1.3-2.8-2.9-3.7-4.8c-1-2.1-1.1-4.4-0.7-6.5
		c0.2-1,0.3-2.4,1.5-3.1c0.3-0.2,0.5-0.2,0.8-0.2c0.3,0.1,0.3,0.3,0.2,0.5c0.3,1.3,0.1,2.5,0.1,3.8c0.3,1.5,1.5,2.4,2.5,3.3
		c1.2,1.1,2.1,2.4,3.4,3.3c-0.1,1.2,1.5,1.5,1.3,2.7c0.8-0.1,0.6,0.5,0.6,0.9C59.8,122.6,60,123.1,59.2,123z M62.4,118
		c-0.1,0.9-0.5,1.7-0.5,2.6c0,0.4-0.5,0.7-0.8,0.6c-0.3,0-0.8-0.2-0.9-0.7c-0.5-2.6-2.4-4.1-4-5.8c-1.1-1.2-2.3-2.3-3-3.8
		c-0.1-0.2-0.1-0.4-0.1-0.6c-0.2,0-0.5,0.1-0.5-0.2c-0.1-0.8-0.1-1.6,0-2.3c0-0.2,0.3-0.2,0.5-0.2c0-0.2,0.1-0.4,0.1-0.6
		c-0.1-0.7,0.4-0.6,0.7-0.5c0.5,0.1,1.3-0.5,1.4,0.5c0.7-0.1,1.2,0.2,1.8,0.6c0.8,0.6,1.8,0.8,2.4,1.6c0.5,0.7,0.9,1.5,1.4,2.2
		c0.1,0,0.4,0,0.4,0c0.1,0.8,1,1.2,0.8,2.1C62,115,62.5,116.5,62.4,118z"/>
	<path class="st3" d="M99.5,40c-0.8-2.1-1.6-4.2-2.6-6.1c-0.1-0.3-0.3-0.5-0.6-0.6c-1.2-0.5-1.9-1.5-2.3-2.6
		c-1.3-2.9-3.2-5.4-5.4-7.6c-2.3-2.3-5.1-4.1-7.8-5.8c-2.7-1.6-5.4-3.2-8.4-4.1c-0.3-0.1-0.6-0.2-0.9-0.3c0.7-1.3,1.9-2,3-2.8
		c2.1-1.7,4.2-3.3,6.6-4.7c0.2-0.1,0.5-0.2,0.6-0.5c0.6-1.7,2-2.1,3.5-2.3c3.4-0.6,6.7,0.1,9.9,0.9c2.8,0.7,5.3,2.1,7.4,4
		c2.6,2.3,4,5.4,4.3,8.9c0.1,1,0.5,2,0.2,3.1c-0.8,3-1,6.1-1.9,9.1c-1.1,3.5-2.6,6.8-4.4,9.9c-0.3,0.5-0.6,1-0.9,1.4
		C99.7,39.9,99.6,40,99.5,40z"/>
	<path class="st3" d="M9.4,40.1c-1.1-1.9-2.3-3.8-3.2-5.7c-1.6-3.4-2.7-7-3.3-10.7c-0.4-2.4-0.8-4.8-0.4-7.1
		c0.5-3.4,2.3-6.2,5.2-8.3c2.8-2,6.1-2.7,9.4-3.2c1.5-0.2,3.1-0.1,4.6-0.3c1.9-0.2,3.9-0.2,5.6,1c0.1,0.1,0.2,0.1,0.3,0.1
		C30.5,6,32,8.4,34.2,9.7c1.1,0.7,2.1,1.6,3.1,2.4c0.2,0.2,0.5,0.3,0.5,0.6c0,0.3-0.4,0.3-0.7,0.4c-1.6,0.5-3.3,1.1-4.8,1.8
		c-1.6,0.8-3.2,1.6-4.7,2.7c-1.3,0.9-2.6,1.7-3.8,2.8c-1.2,1.1-2.2,2.3-3.2,3.4c-1.2,1.3-2.5,2.5-3.8,3.7c-1.2,1-2.2,2-2.7,3.4
		c-0.1,0.1-0.1,0.3-0.3,0.4c-2.1,2.4-3.1,5.4-4.2,8.3C9.6,39.8,9.6,39.9,9.4,40.1z"/>
	<path class="st3" d="M73.3,104.8c1.5,0.1,2.6,0.5,3.7,1.4c1,0.8,1.9,1.5,2.6,2.6c1.3,1.8,1.5,3.8,1.4,5.8c-0.1,1.6-0.3,3.2-1.1,4.8
		c-1.2,2.3-4.8,3.9-7.2,3.4c-2.3-0.4-4.1-1.5-5.9-2.9c-2.1-1.7-2.2-4-2-6.4c0.2-2.1,1-4,2.4-5.6C68.9,105.9,70.9,104.9,73.3,104.8z"
		/>
	<path class="st3" d="M46,113.8c-0.1,2.3-0.6,4.5-2.6,6.1c-0.6,0.5-1.2,1.1-1.8,1.7c-0.6,0.6-1.5,0.5-2.2,0.6
		c-1.4,0.3-2.9,0.4-4.4,0.3c-1.2-0.1-2.3-0.6-2.9-1.7c-0.6-1.1-1.2-2.2-1.7-3.4c-0.6-1.6-0.6-3.1-0.4-4.5c0.3-2,0.5-4.2,2-5.8
		c1.7-1.8,3.8-1.9,6-1.8c2.3,0.1,4.2,1.1,5.9,2.7c0.8,0.8,1.5,1.7,1.7,2.8C45.8,111.7,46.1,112.7,46,113.8z"/>
	<path class="st5" d="M10.6,119.5c0.2-1.7,0.9-3.3,1.8-4.8c0.3-0.5,0.8-0.8,1.2-1.2c0.5,0.4,1.1,0.3,1.7,0.2
		c1.1-0.1,2.4-0.2,3.4,0.3c1.4,0.7,2.6,1.7,3.3,3.1c0.6,1.3,1.4,2.5,2.2,3.7c0.4,0.5,0.7,1.1,0.8,1.7c0.8,3.4,0.5,6.6-0.9,9.8
		c-0.2,0-0.3,0-0.5,0c-2.6,0-5.2,0.3-7.6-1.5c-1.6-1.2-2.8-2.6-3.7-4.2c-0.4-0.6-0.8-1.1-1.4-1.5c0-0.4-0.1-0.8-0.1-1.1
		c-0.2,0-0.9,0-0.6-0.6c0-0.7,0.1-1.7,0.1-2.4C10,120.5,9.9,119.7,10.6,119.5z"/>
	<path class="st3" d="M24,132.4c1.4-3.2,1.7-6.4,0.9-9.8c-0.1-0.6-0.5-1.2-0.8-1.7c-0.8-1.2-1.6-2.4-2.2-3.7
		c-0.7-1.4-1.9-2.4-3.3-3.1c-1-0.5-2.3-0.4-3.4-0.3c-0.6,0-1.2,0.1-1.7-0.2c0.1-1.3,0.5-1.6,1.6-2.1c2-0.8,3.9-0.7,5.9,0.2
		c2.5,1.1,4.8,2.6,6.4,4.7c1.1,1.4,2,3.1,2.1,5.1c0,0.6,0.5,0.9,1,1.2c0.3,0.3,0.7,0.5,1.2,0.6c1.2,0.1,2.2,0.9,3.5,0.8
		c0.9-0.1,1.1,0.7,1.1,1.5c0,1.7,0,3.3,0,4.9c0,0.5,0.2,1,0.1,1.6c-0.1,1.3-1.1,2.1-2.7,2.1c-1.8,0-3.6,0-5.3,0
		c-0.2,0-0.4-0.1-0.5,0c-0.5,1.3-1.8,1.3-2.7,2c-0.8,0.7-1.5,0.6-2.3,0.1c0-0.1-0.1-0.2-0.2-0.3c-0.3-0.8-0.1-1.5,0.5-2.1
		C23.6,133.3,24,132.9,24,132.4z"/>
	<path class="st5" d="M100.9,124c-0.2,0.1-0.2,0.2-0.1,0.4c-0.2,0.1-0.4,0.3-0.4,0.5c-0.1,0.8-0.7,1.6-1.1,2.2
		c-0.8,1.2-1.6,2.4-2.9,3.2c-1.7,1.1-3.3,2.4-5.6,2c-0.4-0.1-0.8,0-1.2,0c-0.7-0.1-1.6,0.3-2.2-0.5c-0.2-0.2-0.7-0.2-0.8,0.4
		c0,0.3,0,0.6,0,0.9c-0.7-0.8-0.8-1.8-0.7-2.8c0-1,0-2-0.4-3c0.2-0.8,1.1-0.9,1.5-1.6c0.1-0.1,0.3-0.1,0.3-0.2
		c0.3-1.5,1.7-2.1,2.3-3.4c0.4-1,1-1.9,1.1-3c0.6-0.3,0.4-0.8,0.4-1.2c0-0.6,0.1-1.2,0.1-1.7c1.1-0.3,0.3-1.1,0.5-1.7
		c0.1-0.2,0-0.5,0.4-0.6c1.9-0.4,3.7-1,5.6-0.2c0.3,0.3,0.8,0.2,1.2,0.3c1.5,1.3,1.8,3.1,2.2,4.8c0.1,0.2,0.2,0.5,0.2,0.7
		c-0.4,0.3-0.1,0.8-0.2,1.2c0,0.7,0,1.5,0,2.2C101,123.4,101,123.7,100.9,124z"/>
	<path class="st3" d="M85.5,127.4c0.5,0.9,0.5,2,0.4,3c0,1,0,2,0.7,2.8c0.1,0.4,0.3,0.6,0.6,0.9c0.5,0.6,0.9,1.2,0.9,2.1
		c-1,0.6-1.9-0.1-2.5-0.6c-1.3-1.1-2.5-1.9-4.3-1.8c-1.6,0.1-3.3,0-4.9,0c-1,0-1.2-0.2-1-1.2c0.3-1.9,0.3-1.8,2.3-1.9
		c1.9-0.1,3.5-1,5.1-1.9c0.7-0.4,1.3-0.8,1.9-1.2C84.9,127.2,85.2,127.2,85.5,127.4z"/>
	<path class="st0" d="M88.1,136.1c0.1-0.9-0.4-1.5-0.9-2.1c-0.2-0.3-0.5-0.5-0.6-0.9c0-0.3,0-0.6,0-0.9c0-0.6,0.6-0.6,0.8-0.4
		c0.6,0.8,1.4,0.4,2.2,0.5c0.4,0.1,0.8,0,1.2,0c2.3,0.4,3.8-0.9,5.6-2c1.3-0.8,2.2-2,2.9-3.2c0.4-0.7,0.9-1.4,1.1-2.2
		c0-0.3,0.2-0.4,0.4-0.5c0.4,0.4,0.1,0.9,0.1,1.4c-0.7,0.1-0.5,0.6-0.5,1c-0.2,1.4-0.7,2.7-1.4,3.9c-0.9,1.5-1.8,3-3.3,4
		c-1,0.8-2.1,1.5-3.4,1.4c-1.3,0-2.7,0-4-0.1C88.2,136.1,88.2,136.1,88.1,136.1z"/>
	<path class="st0" d="M24,132.4c0,0.5-0.4,0.9-0.8,1.2c-0.6,0.6-0.8,1.3-0.5,2.1c-0.8,0-1.6,0-2.4,0c-0.3,0-0.6-0.1-0.7,0.4
		c-0.2,0-0.4,0.1-0.6,0.1c-1.8-0.1-3-1.2-4.2-2.3c-1.3-1.2-2.1-2.7-2.7-4.3c-0.5-1.4-1.4-2.7-1.3-4.4c0.6,0.4,1.1,0.8,1.4,1.5
		c0.9,1.7,2.1,3.1,3.7,4.2c2.4,1.7,5,1.5,7.6,1.5C23.7,132.4,23.9,132.4,24,132.4z"/>
	<path class="st6" d="M62,92.7c0.9,0,1.8,0.1,2.7,0.1c0.6,0.9,0.2,1.5-0.8,1.5c-1,0-2,0.1-3,0C60.1,94.2,59.8,95,59,95
		c-4-0.1-8,0.4-11.9-0.6c-0.2-0.1-0.5-0.1-0.5-0.4c0-0.3-0.1-0.6,0.1-0.7c0.2-0.1,0.4-0.2,0.5-0.4c0.5,0,1,0,1.6-0.1
		c1.4,0,2.9,0,4.3,0c0.4,0,0.6-0.1,0.6-0.5c2,0,4.1,0,6.1,0c0,0.4,0.2,0.6,0.6,0.5C61,92.7,61.5,92.7,62,92.7z"/>
	<path class="st7" d="M69.7,93.2c-1.7,0.3-3.3-0.7-4.9-0.4c0.6,0.9,0.2,1.5-0.8,1.5c-1,0-2,0.1-3,0C60.1,94.2,59.8,95,59,95
		c-4-0.1-8,0.4-11.9-0.6c-0.2-0.1-0.5-0.1-0.5-0.4c0-0.3-0.1-0.6,0.1-0.7c0.2-0.1,0.4-0.2,0.5-0.4c-0.3,0-0.7,0-1,0
		c0,0-0.1-0.1-0.2,0c-1,0.2-2.1,0.4-3.1,0.6c-0.5,0.1-1,0.2-1.5,0.3c-0.3,0.1-0.6,0.3-0.6,0.7c0,0.4,0.3,0.6,0.7,0.7
		c0.5,0.2,0.9,0.3,1.4,0.4c1,0.2,2,0.3,3,0.5c1.2,0.2,2.3,0.3,3.5,0.3c0,0,0,0,0,0c5,0.3,10,0.8,14.9,0c1.2-0.2,2.4-0.5,3.4-1.2
		c0.1-0.1,0.1-0.2,0.1-0.3c0.6,0,1.2-0.1,1.8-0.4c0.3-0.1,0.4-0.2,0.4-0.6C70.1,93.5,70.1,93.1,69.7,93.2z M64.6,95.7
		c-1.2,0.2-2.5,0.3-3.7,0.4c-2.5,0.1-4.9,0.1-7.4-0.1c-1.4-0.1-2.8-0.2-4.3-0.3c0,0,0,0,0,0c-1.1-0.1-2.1-0.2-3.2-0.3
		c-1.1-0.2-2.2-0.3-3.2-0.5c-0.3-0.1-0.5-0.1-0.8-0.2c-0.2-0.1-0.6-0.2-0.6-0.4c0,0,0.1,0,0.1,0c0.5,0,1.2-0.2,1.4,0.1
		c0.6,0.7,1.3,0.4,2,0.5c0.8,0.1,1.6,0,2.4,0c0.3,0,0.6-0.1,0.8,0.2c0.2,0.4,0.6,0.3,0.9,0.3c2.7,0,5.3,0.1,8,0
		c2.6-0.1,5.2,0.4,7.8-0.5c0.8-0.3,1.6-0.3,2.5-0.3C66.5,95.3,65.5,95.5,64.6,95.7z"/>
	<path class="st3" d="M83.4,109.7c-0.1,1.1,0.1,2.3,0.3,3.6c0.1,0.5-0.1,0.9-0.6,1c-0.5,0.1-0.8-0.2-0.9-0.6
		c-0.4-1.2-0.4-2.6-0.9-3.8c-0.5-1-0.9-2.1-1.7-2.9c-0.4-0.4-0.4-1.1-1-1.4c-0.3-0.2-0.1-0.5,0.3-0.7c2.8-0.8,4.4,0.9,4.5,3.6
		C83.4,108.8,83.4,109.1,83.4,109.7z"/>
	<path class="st3" d="M97.6,113.9c-1.9-0.8-3.8-0.2-5.6,0.2c-0.4,0.1-0.3,0.3-0.4,0.6c-0.2,0-0.4,0-0.5,0c0-0.7,0.1-1.4,0-2.2
		c-0.2-1.4,0.8-2,1.8-2c1.6,0,3.2,0.2,4.3,1.6c0.3,0.3,1,0.3,0.9,1C98,113.4,97.8,113.7,97.6,113.9z"/>
	<path class="st1" d="M39.1,99.7c0-1.4,1.1-2.6,2.2-1.9c0.7,0.4,1,1.2,1.2,2c0.3,1.4-0.1,2.8-0.5,4.1c-0.8-0.1-1.7,0.2-2.5-0.3
		c0-0.1,0-0.2,0-0.2c0-0.4,0-0.8,0-1.2C39.3,101.3,39.8,100.4,39.1,99.7z"/>
	<path class="st4" d="M72.7,92.2c-0.4-0.8-1.2-0.9-1.8-1.1c-1.8-0.6-3.6-0.7-5.3-0.2c0,0,0,0-0.1,0c-0.7,0-1.3,0.1-2,0.2
		c-0.4,0.1-1.1,0-1.2,0.6c0,0.1,0.1,0.2,0.2,0.2c0.7,0,1.4,0,2.1,0c0.3,0,0.7,0,1,0c0.3,0,0.7,0.1,1,0.2l1.9,0.5
		c0.6,0.2,1.2,0.2,1.9,0.3c0,0,0.1,0,0.1,0c0.5,0.2,1.1,0.4,1.6,0.3C73,93.1,73,92.7,72.7,92.2z"/>
	<path class="st3" d="M22.2,109.5c-0.1-0.5,0.2-0.8,0.5-1.2c0.7-0.6,1.5-0.8,2.3-0.8c0.9-0.1,1.5,0.9,1.3,1.8c-0.2,1.3-1,1.8-2,1.7
		c-0.7-0.1-1.2-0.5-1.8-0.7C22.1,110.2,22.3,109.8,22.2,109.5z"/>
	<path class="st4" d="M46.2,91.4c-1.6-0.3-3.3-0.7-5-0.4h0c-0.2,0-0.5,0-0.7,0c0,0-0.1,0-0.1,0c0,0-0.1,0-0.2,0
		c-0.1,0-0.2,0.1-0.2,0.1c0,0-0.1,0-0.1,0.1c0,0,0,0,0,0l0,0c0,0-0.1,0.1-0.1,0.1c0,0,0,0,0,0.1c-0.2,0.2-0.5,0.4-0.8,0.5
		c-0.2,0.1-0.4,0.2-0.5,0.4c0,0,0,0.1,0,0.1c0,0-0.1,0.1-0.1,0.2c0,0.1,0,0.2,0.1,0.2c0,0.1,0,0.1,0.1,0.2c0.3,0.3,0.8,0.3,1.2,0.3
		c0,0,0,0,0.1,0c0.6,0.1,1.2,0,1.8-0.1c0,0,0.1,0,0.1,0c0.5,0,1.1-0.1,1.6-0.1c0.5-0.1,1-0.2,1.5-0.3c0.4-0.1,0.7-0.2,1-0.4
		c0.1,0,0.2,0,0.3,0c0.3,0,0.5-0.2,0.5-0.5C46.6,91.3,46.4,91.4,46.2,91.4z"/>
	<path class="st3" d="M38.2,124.6c0,1.9,0,3.9,0,5.8c0,0.8-0.3,1.6,0.5,2.3c0.2,0.2,0,0.8,0.1,1.2c-0.7-0.3-1.1-0.6-1.1-1.4
		c0-2.4,0-4.7,0-7.1C37.7,125,37.6,124.6,38.2,124.6z"/>
	<path class="st3" d="M38.8,95.5c-0.6,0-0.6,0.4-0.6,0.9c0,2.3,0,4.6,0,6.9c-0.5,0-0.6-0.3-0.6-0.7c0-2.3,0-4.6,0-6.9
		c0-0.3,0-0.7,0.5-0.7C38.5,94.9,38.9,95,38.8,95.5z"/>
	<path class="st4" d="M89.5,114.7c-0.2-2.8-0.1-5.5-0.1-8.3c-1.1-0.4-0.5-1.1-0.4-1.7c-0.8-0.5-1.1-1.4-1.4-2.2
		c-0.6-1.3-1.7-2-2.9-2.6c-0.1-0.1-0.1-0.1-0.1-0.1c-0.4-0.3-0.9-0.5-1.4-0.6c-0.9-0.6-2-0.4-3-0.4c-1.5,0-3,0-4.5,0
		c-0.1,0-0.1,0-0.2,0c-0.3,0-0.6,0.2-0.6,0.5c-0.1,0.3,0.1,0.6,0.1,0.8c0,0.6-0.1,1.3-0.1,1.9c0,0.3,0,0.5,0,0.8
		c0,0.3,0.2,0.6,0.6,0.7c0.2,0,0.3-0.1,0.4-0.1c1.4,0,2.8,0,4.3,0c0.8,0,1.8,0.1,2.3,0.5c1.6,1,2.7,2.3,2.6,4.4c-0.1,2.3,0,4.7,0,7
		c0,1.1-0.9,1.9-0.7,3c0,0,0,0.1-0.1,0.1c-1.3,1.1-1.5,3.2-3.4,3.7c-0.1,0-0.2,0.2-0.2,0.3c-0.2,0.6-0.7,0.9-1.3,1.1
		c0,1-0.7,0.4-1.1,0.5c-0.7-0.2-1,0.7-1.5,0.6c-1.3-0.2-1.3,0.6-1.3,1.6c0,0.5,0,0.9,0,1.4c0.1,0,0.4,0,0.4,0c0.1,1.2,1.1,0.8,1.8,1
		c0.4,0,0.8-0.1,1.2-0.1c0.5-0.1,1.2,0,1.4-0.4c0.4-0.6,0.9-0.5,1.4-0.6c0.3-1,1.1-1.6,2.1-1.5c0.1-0.2,0.1-0.4,0.3-0.7
		c0.4-0.4,1.1-0.6,1.1-1.2c0-0.5,0.2-0.7,0.7-0.8c0.7-0.1,1.2-0.6,1.2-1.3c0-0.3,0.1-0.6,0.4-0.8c0.6-0.3,0.7-0.9,0.7-1.5
		c0.1-0.4-0.4-1.1,0.5-1.1C88.7,117.2,89.6,116.1,89.5,114.7z"/>
	<path class="st3" d="M88.3,136.1c1.3,0,2.7,0,4,0.1c0,0.4-0.3,0.5-0.7,0.5c-0.9,0-1.8,0-2.7,0C88.5,136.7,88.3,136.6,88.3,136.1z"
		/>
	<path class="st3" d="M19,136.2c0.2,0,0.4-0.1,0.6-0.1c1,0,2.1,0,3.1,0c0,0.3,0,0.6-0.5,0.6c-1,0-1.9,0-2.9,0
		C19.1,136.7,19.1,136.4,19,136.2z"/>
	<path class="st0" d="M103.2,119.7c0.3,0.1,0.5,0.2,0.5,0.6c0,0.9,0,1.8,0,2.7c0,0.4-0.2,0.5-0.5,0.6
		C103.2,122.2,103.2,120.9,103.2,119.7z"/>
	<path class="st3" d="M73.5,125.2c-0.7-0.3-1.3-0.7-2.1-0.7c0,0-0.1-0.3-0.1-0.4c0.9,0,1.8-0.3,2.5,0.6
		C74.1,125,74.1,125,73.5,125.2z"/>
	<path class="st3" d="M75.7,127.5c0.1,0,0.4,0,0.4,0c0.1,1.2,1.1,0.8,1.8,1c-0.3,1-1.1,0.4-1.7,0.5c-0.5,0.1-0.4-0.4-0.4-0.8
		C75.6,128,75.7,127.7,75.7,127.5z"/>
	<path class="st3" d="M81.8,127.4c0.3-1,1.1-1.6,2.1-1.5c-0.5,0.4-1.1,0.6-1.3,1.4C82.6,127.5,82.1,127.4,81.8,127.4z"/>
	<path class="st0" d="M101,123.1c0-0.7,0-1.5,0-2.2c0.2,0,0.3,0,0.5,0.1c0,0.7,0,1.4,0,2.1C101.4,123,101.2,123.1,101,123.1z"/>
	<path class="st3" d="M67.6,135.7c-0.1-0.5,0.2-0.6,0.6-0.6c0.5,0,1,0,1.6,0c0.1,0.4-0.2,0.6-0.6,0.6
		C68.6,135.7,68.1,135.7,67.6,135.7z"/>
	<path class="st5" d="M22.8,136.1c-1,0-2.1,0-3.1,0c0-0.4,0.4-0.4,0.7-0.4c0.8,0,1.6,0,2.4,0c0,0.1,0.1,0.2,0.2,0.3L22.8,136.1
		L22.8,136.1z"/>
	<path class="st3" d="M89.5,106.4c-1.1-0.4-0.5-1.1-0.4-1.7C89.8,105.1,89.4,105.8,89.5,106.4z"/>
	<path class="st0" d="M91.1,114.8c0.2,0,0.4,0,0.5,0c-0.2,0.6,0.6,1.4-0.5,1.7C91.1,115.8,91.1,115.3,91.1,114.8z"/>
	<path class="st0" d="M31.7,123.1c-0.4-0.1-0.8-0.3-1.2-0.6c0.2-0.6,0.3-0.7,0.6-0.2C31.3,122.5,31.9,122.5,31.7,123.1z"/>
	<path class="st3" d="M72.6,133.9c-0.1-0.6,0.3-0.9,0.9-0.9C73.6,133.7,73.4,134.1,72.6,133.9z"/>
	<path class="st0" d="M97.6,113.9c0.2-0.2,0.4-0.5,0.6-0.7c0.1,0.4,0.9,0.3,0.6,1C98.4,114.1,97.9,114.2,97.6,113.9z"/>
	<path class="st3" d="M79.5,123.4c0,1-0.7,0.4-1.1,0.5C78.5,123.1,79.1,123.6,79.5,123.4z"/>
	<path class="st3" d="M88.4,119.7c0.1-0.4-0.4-1.1,0.5-1.1C88.8,118.9,89.3,119.6,88.4,119.7z"/>
	<path class="st3" d="M101.6,120.9c-0.2,0-0.3,0-0.5-0.1c0.1-0.4-0.2-0.8,0.2-1.2C101.9,119.9,101.4,120.5,101.6,120.9z"/>
	<path class="st3" d="M41.5,123.4c0,1-0.7,0.5-1.1,0.5C40.5,123.1,41.2,123.6,41.5,123.4z"/>
	<path class="st0" d="M91.1,118.1c0,0.4,0.2,0.9-0.4,1.2C90.4,118.8,90.2,118.3,91.1,118.1z"/>
	<path class="st3" d="M85.8,94.7c0.5,0.3,0.4,0.8,0.3,1.2C85.1,95.8,85.6,95.2,85.8,94.7z"/>
	<path class="st0" d="M102.8,116.9c0.6,0.4,0.3,1.1,0.4,1.6C102.5,118.1,102.8,117.4,102.8,116.9z"/>
	<path class="st3" d="M86.3,97.5c0.4,0.3,0.4,0.8,0.3,1.2C85.7,98.6,86.2,98,86.3,97.5z"/>
	<path class="st3" d="M100.4,126.8c0-0.4-0.2-1,0.5-1C100.9,126.2,101.2,126.8,100.4,126.8z"/>
	<path class="st3" d="M101,123.1c0.2,0,0.3,0,0.5-0.1c0,0.4,0.3,1.1-0.6,1C101,123.7,101,123.4,101,123.1z"/>
	<path class="st2" d="M54.4,80.3c-4.7-0.3-8.1-2.6-10.6-6.5c-2.3-3.7-3.5-7.8-4.7-12c-0.1-0.4-0.3-0.8,0.3-1.1
		c0.4-0.2,0.6-0.3,0.9,0.2c1,1.7,2.7,2.4,4.5,2.8c3.2,0.7,6-0.4,8.7-2c0.8-0.5,0.7-1.2-0.1-1.9c-1.3-1.1-2.7-2-4-3.1
		c-0.5-0.4-1.1-1-0.7-1.8c0.4-0.7,1.3-0.8,1.9-0.7c1.1,0.1,2.1,0.4,3.1,1c0.7,0.4,1.2,0.3,1.8,0c1.2-0.7,2.5-1.2,3.9-0.8
		c1.2,0.3,1.4,1.1,0.6,1.9c-0.8,0.8-1.8,1.4-2.6,2.1c-0.6,0.4-1.2,0.8-1.7,1.3c-0.5,0.4-0.9,1-0.2,1.6c1.5,1.2,3,2.2,4.9,2.6
		c2.1,0.4,3.9-0.3,5.7-1.4c0.9-0.6,1.9-1.1,2.6-2c0.2-0.3,0.4-0.3,0.7-0.1c0.3,0.2,0.7,0.5,0.5,1c-0.2,0.8-0.5,1.6-0.7,2.3
		c-1.1,3.6-2.4,7.2-4.6,10.3c-2,2.9-4.5,5.2-8.1,5.9C55.6,80.3,55,80.3,54.4,80.3z M54.7,61.8c-1.6,1.8-3.7,3-6.1,3.1
		c-1.5,0.1-2.2,1-3,2c-0.4,0.6-1,1.1-1.5,1.6c-0.5-0.6-0.8-1.3-1-2c-0.4-1.3-0.8-2.5-2.4-2.9c0,0.1,0,0.2,0,0.3
		c0.8,2.7,1.7,5.4,3.1,7.9c1.7,3.1,4,5.7,7.5,6.8c3.2,1,6.2,0.7,8.9-1.5c2.2-1.8,3.8-4.2,5-6.7c0.4-0.9,0.8-1.8,1.3-2.7
		c0.8-1.8,1.4-3.8,2-5.9c-1.3,1.1-2.5,1.9-2.8,3.5c-0.2,1-0.8,2-1.3,2.9c-0.3,0.5-0.5,0.6-0.9,0.1c-0.5-0.7-1.2-1.4-1.7-2.2
		c-0.4-0.7-0.9-0.9-1.6-1.1C58.1,64.6,56.2,63.6,54.7,61.8z M65,64.6c-0.9,0.2-1.7,0.3-2.7,0.5c0.6,0.7,0.8,1.8,1.5,1.8
		c0.7,0,0.7-1.2,1-1.9C64.9,65,64.9,64.9,65,64.6z M45.9,65.2c-0.6-0.4-1.3-0.2-1.9-0.5c-0.4-0.1-0.5,0.1-0.4,0.5
		c0.2,0.6,0.5,1.1,0.7,1.8C44.9,66.3,45.4,65.8,45.9,65.2z"/>
	<path class="st2" d="M92.7,49.6c0.1-1-0.2-2.2-1.2-3c-8.1-6.1-18.8-6.1-26.9,0c-1.2,0.9-1.4,2.2-1.2,3.3c-0.4,0.6-0.1,0.8,0.8,1.6
		c0,0,0,0,0,0c0.8,0.9,2.1,1.3,3.4,0.3c6.5-4.9,14.3-4.9,20.8,0c1.7,1.3,3.3,0.3,4-1.2c0.1-0.1,0.1-0.1,0.2-0.2
		C93,50,92.9,49.8,92.7,49.6z"/>
	<path class="st2" d="M45.4,48.3c-6.4-6.9-22.2-8.4-28.9-0.9c-0.7,0.7-0.9,1.6-0.8,2.4c-0.4,0.5-0.2,0.8,0.5,1.4
		c1,1.4,3,2.2,4.5,0.5c4.5-5,16.2-3.6,20.4,0.9C43.7,55.4,48,51.1,45.4,48.3z"/>
	<path class="st1" d="M28.5,57.3c2,0,4.1,1,5.7,3c0.6,0.8,0.6,1.6-0.1,2.2c-0.7,0.5-1.6,0.5-2.2-0.3c-1.4-1.8-3.3-2.1-5.4-1.7
		c-1.5,0.3-2.9,1-4.2,1.7c-0.8,0.4-1.5,0.4-2-0.3c-0.6-0.7-0.5-1.7,0.3-2.1C22.9,58.4,25.3,57.3,28.5,57.3z"/>
	<path class="st1" d="M82,58.8c3.2,0.1,5.5,1.2,7.8,2.5c0.8,0.4,0.8,1.2,0.5,1.9c-0.4,0.8-1.2,1.1-2,0.6c-1.2-0.6-2.3-1.2-3.6-1.6
		c-2.4-0.7-4.6-0.7-6.2,1.5c-0.6,0.7-1.5,0.8-2.1,0.2c-0.6-0.5-0.7-1.4-0.2-2.1C77.7,59.8,79.8,58.9,82,58.8z"/>
	<path class="st1" d="M32.4,67.1c1.6,0,3,0.4,4.1,1.6c0.7,0.7,0.8,1.6,0.2,2.2s-1.5,0.7-2.2,0c-1-0.9-2.2-0.9-3.3-0.5
		c-2,0.6-3.7,1.8-5.5,2.6c-1.2,0.6-2.4,0-2.4-1.2c0-0.6,0.2-1.1,0.7-1.3c2-1,3.9-2.2,6-2.9C30.7,67.3,31.6,67.2,32.4,67.1z"/>
	<path class="st1" d="M77.8,68.7c1.7,0,3.1,0.5,4.5,1.2c1.3,0.7,2.6,1.3,3.8,2c0.9,0.5,1.2,1.3,0.8,2.1c-0.4,0.8-1.3,1-2.2,0.5
		c-1.3-0.6-2.6-1.3-3.9-2c-0.7-0.4-1.4-0.7-2.2-0.8c-1.1-0.2-2,0-2.8,0.7c-0.7,0.6-1.5,0.6-2.1,0c-0.6-0.6-0.6-1.5,0.1-2.1
		C74.9,69.1,76.4,68.8,77.8,68.7z"/>
	<path class="st8" d="M57.9,118.6c-1.3-0.9-2.2-2.3-3.4-3.3c-0.9-0.8-2-1.7-2.4-3c0.2-1.3-0.2-2.6,0-3.9c0-0.1,0-0.2-0.1-0.3
		c0.1-0.2,0.1-0.4-0.2-0.4c-0.3,0-0.5,0-0.8,0.2c-1.2,0.7-1.3,2.1-1.5,3.1c-0.4,2.2-0.3,4.5,0.7,6.5c0.9,1.8,1.9,3.5,3.7,4.8
		c1.6,1.1,3.1,1.3,4.8,1.3c0.3,0,0.6,0,0.7-0.4c0-0.6,0-1.2,0-1.7C59.4,120.1,57.8,119.8,57.9,118.6z"/>
	<path class="st8" d="M62.2,115.1c0-0.3,0-0.7,0-1c0-0.2,0.1-0.4,0.1-0.6c0-0.2-0.1-0.5-0.2-0.7c-0.4-0.7-0.9-1.4-1.5-1.9
		c0,0-0.1,0-0.1-0.1c-0.3-0.6-0.7-1.2-1.1-1.7c-0.6-0.9-1.6-1.1-2.4-1.6c-0.5-0.4-1.1-0.7-1.8-0.6c-0.7,0-1.4,0-2.1,0
		c0,0.2-0.1,0.4-0.1,0.6c0,0.9,0,1.8,0,2.7c0,0.2,0,0.4,0.1,0.6c0.7,1.5,1.9,2.6,3,3.8c1.7,1.7,3.6,3.3,4,5.8
		c0.1,0.4,0.5,0.7,0.9,0.7s0.8-0.3,0.8-0.6c0-0.9,0.4-1.7,0.5-2.6C62.5,117,62.3,116.1,62.2,115.1z"/>
	<path class="st5" d="M39.1,99.7c0.7,0.7,0.2,1.6,0.3,2.4c-0.2,0-0.4-0.1-0.5-0.1C38.9,101.3,38.6,100.4,39.1,99.7z"/>
	<path class="st0" d="M38.9,102.1c0.2,0,0.4,0.1,0.5,0.1c0,0.4,0,0.8,0,1.2C38.5,103.2,38.9,102.5,38.9,102.1z"/>
	<path class="st9" d="M54.7,61.8c1.5,1.8,3.4,2.8,5.5,3.3c0.7,0.2,1.2,0.4,1.6,1.1c0.5,0.8,1.1,1.4,1.7,2.2c0.4,0.5,0.6,0.4,0.9-0.1
		c0.5-0.9,1.1-1.9,1.3-2.9c0.3-1.6,1.5-2.4,2.8-3.5c-0.6,2.2-1.2,4.1-2,5.9c-0.4,0.9-0.8,1.8-1.3,2.7c-1.2,2.6-2.8,4.9-5,6.7
		c-2.6,2.2-5.7,2.5-8.9,1.5c-3.6-1.1-5.8-3.6-7.5-6.8c-1.3-2.5-2.3-5.2-3.1-7.9c0-0.1,0-0.3,0-0.3c1.6,0.3,2,1.5,2.4,2.9
		c0.2,0.7,0.5,1.4,1,2c0.5-0.5,1-1,1.5-1.6c0.8-1,1.4-1.8,3-2C51,64.7,53.1,63.6,54.7,61.8z"/>
	<path class="st1" d="M65,64.6c-0.1,0.3-0.1,0.4-0.1,0.5c-0.4,0.7-0.4,1.9-1,1.9c-0.7,0-0.9-1.2-1.5-1.8C63.3,65,64.1,64.8,65,64.6z
		"/>
	<path class="st1" d="M45.9,65.2c-0.5,0.6-1,1.2-1.5,1.8c-0.3-0.7-0.5-1.3-0.7-1.8c-0.2-0.4,0-0.6,0.4-0.5
		C44.6,64.9,45.3,64.7,45.9,65.2z"/>
</g>
<path class="st2" d="M69.2,92.7c-0.2,0-0.5-0.1-0.7-0.1s-0.5-0.2-0.7-0.2c-0.1,0-0.2,0.1-0.2,0.2c0,0.1,0.1,0.2,0.2,0.2
	c0,0,0,0,0.1,0c0,0,0.1,0,0.1,0c0.1,0,0.1,0,0.2,0c0.1,0,0.2,0.1,0.3,0.1c0.2,0.1,0.4,0.1,0.7,0.1c0.1,0,0.3,0,0.3-0.2
	C69.4,92.9,69.3,92.7,69.2,92.7z"/>
<path class="st7" d="M69.9,93.4c-0.4-0.4-0.9-0.3-1.4-0.3c-0.3,0-0.3,0.5,0,0.5c0.3,0,0.8-0.1,1.1,0.2c0.2,0.2-0.1,0.3-0.2,0.3
	c-0.2,0.1-0.4,0.2-0.6,0.2c-0.3,0.1-0.7,0.2-1,0.2c0-0.1,0-0.2,0-0.3c-0.1-0.3-0.5-0.7-0.9-0.5c-0.8,0.3-1.4,0.6-2.2,0.7
	c-0.2,0-0.4,0.1-0.6,0.3c-3.3,0.2-6.6,0.4-9.9,0.4c-0.3,0-0.5,0.2-0.6,0.4c-2-0.1-4-0.3-5.9-0.6c-1-0.2-2-0.4-3.1-0.5
	c-0.5-0.1-1-0.1-1.4-0.2c-0.5-0.2-0.9-0.4-1.4-0.3c-0.3,0-0.5,0.2-0.5,0.5c0,0.2,0.2,0.5,0.5,0.5c0.5-0.1,0.9,0.3,1.4,0.4
	c0.5,0.1,1,0.1,1.5,0.2c1,0.1,2,0.3,3,0.5c2.1,0.4,4.2,0.5,6.3,0.7c0,0,0,0,0,0c0.1,0.1,0.2,0.1,0.3,0.1c3.3,0,6.7-0.2,10-0.4
	c0.3,0,0.4-0.1,0.6-0.3c0.4-0.1,0.8-0.1,1.2-0.2c0.3-0.1,0.6-0.2,0.9-0.3c0.4-0.1,0.7-0.2,1.1-0.3c0.6-0.1,1.2-0.2,1.7-0.5
	c0.2-0.1,0.4-0.3,0.5-0.5C70.2,93.8,70.1,93.6,69.9,93.4z"/>
<path class="st6" d="M64.6,92.8c-2.4-1-5.1-0.6-7.7-0.6c-1.8,0-3.6-0.1-5.5,0c-0.1,0-0.2-0.1-0.2-0.1c-0.6,0-1.2,0-1.8,0
	c-0.5,0-1,0.1-1.5,0.3c-0.2,0-0.3,0-0.5,0.1c-0.3,0.1-0.6,0.1-0.8,0.3c-0.5,0.5-0.1,1.4,0.6,1.3c0.3-0.1,0.4-0.4,0.3-0.6
	c0,0,0,0,0-0.1c0,0,0.1,0,0.1,0s0.1,0,0.1,0c0.1,0,0.2,0,0.2,0c0,0,0.1,0,0.2-0.1c0.1,0,0.3,0,0.4-0.1c0.6-0.1,1.2-0.1,1.8-0.1
	c1.2-0.1,2.3,0,3.5,0c1.2,0,2.3,0,3.5,0c1.1,0,2.2-0.1,3.3-0.1c1.2,0,2.4,0.1,3.5,0.6c0.2,0.1,0.5,0.1,0.7-0.2
	C64.9,93.2,64.8,92.9,64.6,92.8z"/>
<path class="st4" d="M55.2,106.1c-0.3,0-0.6,0-1,0c-0.3,0-0.6,0-0.9,0c-0.3,0-0.6,0.2-0.8,0.4c-0.3,0.2-0.5,0.4-0.6,0.8
	c0,0.2,0.1,0.3,0.2,0.4c0,0.3,0,0.7,0,1c0,0.1-0.1,0.1-0.1,0.2s0,0.2,0,0.2c0,0.1,0,0.2,0,0.3c0,0.2,0,0.4,0.1,0.7
	c0,0.1,0,0.1,0.1,0.1c0,0,0,0,0,0.1c0,0.2,0.1,0.5,0.3,0.6c0.2,0.1,0.5-0.1,0.6-0.3c0.1-0.3,0-0.6,0-0.8c0-0.3,0-0.5,0-0.7
	c0-0.6,0-1.1,0-1.7c0,0,0,0,0,0c0,0,0,0,0.1-0.1c0,0,0.1-0.1,0.2-0.1c0,0,0,0,0,0c0,0,0,0,0,0c0,0,0,0,0,0c0,0,0,0,0,0
	c0.1,0,0.1,0,0.2,0c0.5,0,1,0,1.6,0c0.3,0,0.5-0.2,0.5-0.5C55.7,106.3,55.5,106.1,55.2,106.1z"/>
<path class="st4" d="M59.9,120.7c-0.2-0.1-0.5,0.1-0.6,0.3c-0.1,0.7-0.1,1.3-0.1,2c0,0.3,0.2,0.5,0.5,0.5c0.3,0,0.5-0.2,0.5-0.5
	c0-0.3,0-0.6,0-0.9c0-0.2,0-0.3,0-0.5c0-0.1,0-0.2,0-0.2v0c0,0,0,0,0,0c0-0.1,0-0.1,0-0.1C60.3,121.1,60.1,120.8,59.9,120.7z"/>
<g>
	<path class="st4" d="M57.9,117.4L57.9,117.4C57.9,117.4,57.9,117.4,57.9,117.4z"/>
	<path class="st4" d="M57.7,117.1L57.7,117.1C57.7,117.1,57.7,117.1,57.7,117.1L57.7,117.1z"/>
	<path class="st4" d="M59.1,119c-0.1-0.2-0.1-0.3-0.3-0.4c0,0,0,0,0-0.1c0,0,0-0.1-0.1-0.1c-0.1-0.2-0.2-0.4-0.4-0.6
		c-0.1-0.2-0.3-0.3-0.5-0.4c0,0,0,0,0-0.1c0,0,0,0,0,0c0,0,0-0.1-0.1-0.1s0-0.1-0.1-0.1v0v0c0,0,0,0,0,0c0,0,0,0,0,0
		c0,0,0-0.1,0-0.1c-0.1-0.2-0.3-0.4-0.6-0.3c-0.2,0.1-0.4,0.3-0.3,0.6c0.1,0.2,0.2,0.4,0.3,0.6c0.1,0.1,0.2,0.2,0.3,0.3
		c0.1,0.1,0.2,0.1,0.2,0.2c0,0,0,0,0,0l0,0c0,0.1,0.1,0.1,0.1,0.1c0.1,0.1,0.1,0.2,0.2,0.3c0,0.1,0.1,0.2,0.2,0.3
		c0,0.1,0.1,0.1,0.2,0.2c0,0,0,0,0,0c0,0,0,0,0,0c0.1,0.2,0.3,0.3,0.5,0.2C59,119.5,59.2,119.3,59.1,119z"/>
</g>
<path class="st4" d="M46.6,107c-0.3-0.1-0.5-0.4-0.7-0.6c-0.2-0.3-0.5-0.5-0.8-0.7c-0.7-0.5-1.4-0.9-2.2-1.3
	c-0.4-0.2-0.7-0.3-1.1-0.5c0.5-0.2,0.9-0.7,0.9-1.3c0-0.2,0-0.4,0-0.6c0-0.2,0.1-0.3,0.2-0.5c0.1-0.4,0.2-0.7,0.1-1.1
	c0-0.8-0.3-1.6-0.7-2.2c0-0.1-0.1-0.1-0.1-0.2c0.1-0.2,0-0.5-0.2-0.6c-0.7-0.3-1.7-0.4-2.3,0.1c-0.6,0.5-1,1.1-1.1,1.8
	c0,0.2-0.1,0.4-0.1,0.7c0-0.3,0-0.6,0-0.8c0-0.6,0-1.3,0-1.9c0-0.4,0-0.9,0-1.4c0.1,0,0.1,0.1,0.2,0.1c0.4,0.4,1.1-0.2,0.7-0.7
	c-0.3-0.3-0.8-0.5-1.2-0.4c-0.6,0.1-0.6,0.7-0.6,1.2c0,1.1,0,2.2,0,3.2c0,0.5,0,1.1,0.1,1.6c0,0.3,0.1,0.5,0,0.8
	c0,0.2-0.1,0.4-0.1,0.7c0,0.3,0,0.5,0.2,0.7c0.2,0.2,0.4,0.3,0.6,0.3c0.1,0,0.2,0.1,0.3,0.1c0.4,0.3,0.8,0.5,1.2,0.6
	c0.8,0.3,1.7,0.5,2.5,0.9c0.4,0.2,0.8,0.4,1.2,0.7c0.3,0.2,0.7,0.4,1,0.7c0.6,0.5,1,1.2,1.8,1.5C47,108.2,47.2,107.3,46.6,107z"/>
<path class="st2" d="M44.4,95.7c-0.3,0-0.5-0.1-0.8-0.2c-0.3-0.1-0.6-0.1-1-0.1c-0.3,0-0.5-0.1-0.7-0.2C41.6,95.1,41.3,95,41,95
	c-0.3,0-0.5,0.2-0.5,0.5c0,0.3,0.2,0.5,0.5,0.5c0,0,0,0,0,0c0,0,0.1,0,0.1,0c0.1,0,0.1,0,0.1,0.1c0.1,0.1,0.3,0.1,0.4,0.2
	c0.3,0.1,0.6,0.2,0.9,0.2c0.3,0,0.6,0,0.8,0.1c0.3,0.1,0.6,0.2,1,0.2c0.3,0,0.5-0.2,0.5-0.5C44.8,95.9,44.6,95.7,44.4,95.7z"/>
<path class="st2" d="M53.2,96.7c-1.1,0-2.2-0.1-3.3-0.2c-0.5-0.1-1.1-0.1-1.6-0.2c-0.5-0.1-1-0.1-1.4-0.3c-0.2-0.1-0.5,0.1-0.6,0.3
	c-0.1,0.3,0.1,0.5,0.3,0.6c0.5,0.2,1,0.2,1.5,0.3c0.6,0.1,1.1,0.1,1.7,0.2c1.1,0.1,2.2,0.2,3.4,0.2C53.8,97.7,53.8,96.7,53.2,96.7z"
	/>
<path class="st2" d="M66.4,95.9c-0.9,0.2-1.7,0.5-2.6,0.7c-0.9,0.1-1.8,0.1-2.8,0.2c-0.6,0-0.6,1,0,1c1-0.1,2-0.1,2.9-0.2
	c0.9-0.1,1.8-0.4,2.7-0.7C67.2,96.7,67,95.7,66.4,95.9z"/>
<path class="st2" d="M85.3,99c-0.2-0.1-0.3-0.1-0.5-0.2c-0.2-0.1-0.3-0.2-0.4-0.3c-0.2-0.1-0.3-0.2-0.5-0.3
	c-0.2-0.1-0.5,0.1-0.6,0.3c-0.1,0.3,0.1,0.5,0.3,0.6h0c0.2,0.1,0.4,0.3,0.6,0.4c0.3,0.1,0.6,0.2,0.9,0.3c0.2,0.1,0.5-0.1,0.6-0.3
	S85.6,99,85.3,99z"/>
<path class="st2" d="M86.9,98.7c-0.3-0.7-0.5-1.4-0.6-2.1c-0.1-0.8-0.2-1.6-0.8-2.2c-0.3-0.3-0.8-0.1-0.8,0.3c0,0.1,0,0.2,0,0.4
	c0,0.3,0.2,0.4,0.4,0.5c0.2,0.4,0.2,1,0.2,1.4c0.1,0.8,0.3,1.5,0.7,2.2c0.1,0.2,0.4,0.3,0.7,0.2C87,99.2,87,98.9,86.9,98.7z"/>
<path class="st2" d="M90,104.9c-0.1-0.4-0.2-0.9-0.4-1.3c-0.2-0.4-0.5-0.8-0.7-1.1c-0.2-0.2-0.4-0.3-0.7-0.2
	c-0.2,0.1-0.3,0.4-0.2,0.7c0.3,0.3,0.5,0.7,0.7,1s0.3,0.7,0.4,1.1c0.2,0.8,0.4,1.7,0.5,2.6c0,0.3,0.2,0.5,0.5,0.5
	c0.2,0,0.5-0.2,0.5-0.5C90.4,106.8,90.2,105.8,90,104.9z"/>
<path class="st2" d="M89.4,117.1c-0.6,0.7-0.9,1.6-1.2,2.4c-0.2,0.4-0.3,0.9-0.4,1.3c-0.1,0.2-0.1,0.4-0.2,0.6
	c-0.6,0.5-0.9,1.1-1.4,1.6c-0.3,0.3-0.7,0.5-1,0.9c-0.3,0.3-0.5,0.7-0.7,1.1c-0.1,0-0.1,0.1-0.2,0.2c-0.1,0.2-0.2,0.4-0.4,0.6
	c-0.2,0.2-0.5,0.3-0.7,0.4c-0.5,0.3-0.8,0.7-1.3,1c-0.3,0.1-0.6,0.2-0.8,0.3c-0.2,0.1-0.4,0.3-0.7,0.3c-0.6,0.2-1.1,0.3-1.7,0.5
	c0,0,0,0,0,0c-0.1-0.1-0.3-0.1-0.4-0.1c-0.5,0.1-1,0.1-1.5,0c-0.2,0-0.5-0.1-0.7-0.2c-0.1-0.1-0.2-0.4-0.3-0.6
	c-0.1-0.4-0.2-0.9-0.2-1.4c0-0.4,0-0.9,0.2-1.3c0.2-0.3,0.8-0.5,1.1-0.6c0.4-0.1,0.9-0.2,1.3-0.3c0.4-0.1,0.9-0.3,1.3-0.4
	c0.4-0.2,0.8-0.5,1.2-0.8c0.8-0.7,1.6-1.4,2.2-2.3c0.1-0.1,0.1-0.2,0.1-0.3c0.1-0.1,0.3-0.3,0.4-0.4c0.2-0.2,0.3-0.4,0.5-0.7
	c0.3-0.4,0.5-0.9,0.7-1.3c0.2-0.5,0.3-1.1,0.3-1.6c0.1-0.6,0.2-1.2,0.2-1.7c0-0.3-0.2-0.5-0.5-0.5c-0.2,0-0.5,0.2-0.5,0.5
	c0.1,0.5-0.1,1.1-0.1,1.6c-0.1,0.5-0.1,1.1-0.4,1.5c-0.2,0.4-0.5,0.9-0.7,1.3c-0.3,0.4-0.7,0.7-0.9,1.2c0,0,0,0.1,0,0.1
	c-0.6,0.8-1.3,1.4-2.1,2.1c-0.4,0.3-0.8,0.6-1.3,0.7c-0.5,0.2-1,0.3-1.5,0.4s-1,0.3-1.5,0.6c-0.5,0.3-0.8,0.7-0.9,1.3
	c-0.2,1.1-0.1,2.2,0.3,3.2c0.1,0.3,0.2,0.6,0.5,0.7c0.3,0.1,0.6,0.2,0.9,0.3c0.7,0.1,1.4,0.1,2,0c0.1,0,0.1,0,0.1-0.1
	c0.2,0.1,0.3,0.1,0.5,0c0.5-0.2,1.1-0.3,1.6-0.5c0.3-0.1,0.5-0.3,0.8-0.4c0.3-0.1,0.6-0.2,0.9-0.4c0.5-0.3,0.9-0.7,1.4-1
	c0.3-0.2,0.5-0.3,0.7-0.5c0.2-0.2,0.3-0.5,0.5-0.8c0,0,0-0.1,0-0.1c0.1-0.1,0.2-0.2,0.2-0.3c0.1-0.3,0.3-0.6,0.5-0.8
	c0.3-0.3,0.6-0.5,0.9-0.8c0.3-0.3,0.5-0.6,0.7-0.9c0,0,0.1-0.1,0.1-0.1c0.2,0,0.3,0,0.5-0.2c0.1-0.1,0.2-0.3,0.2-0.4
	c0.1-0.1,0.1-0.2,0.1-0.4c0-0.1,0.1-0.2,0.1-0.3c0.1-0.4,0.2-0.9,0.4-1.3c0.3-0.8,0.5-1.6,1.1-2.2C90.4,117.3,89.8,116.7,89.4,117.1
	z"/>
<path class="st4" d="M80.5,123.3c-0.5,0.1-1,0.2-1.4,0.4c-0.4,0.2-0.9,0.2-1.3,0.3c-0.4,0.1-0.9,0.3-1.3,0.6
	c-0.5,0.3-0.7,0.8-0.6,1.3c0.1,0.3,0.3,0.4,0.6,0.3c0.3-0.1,0.4-0.3,0.3-0.6c-0.1-0.3,0.4-0.4,0.6-0.5c0.3-0.2,0.7-0.3,1.1-0.3
	c0.2,0,0.4-0.1,0.5-0.1c0.2-0.1,0.4-0.2,0.6-0.3c0.4-0.2,0.8-0.2,1.1-0.3C81.4,124.1,81.1,123.2,80.5,123.3z"/>
<path class="st4" d="M88.9,116.3c-0.1-0.5-0.1-1-0.2-1.5c0-0.3-0.2-0.5-0.5-0.5c-0.2,0-0.5,0.2-0.5,0.5c0.1,0.5,0.1,0.9,0.2,1.4
	c0.1,0.5,0.1,0.9,0.1,1.4c-0.1,0.7-0.3,1.3-0.6,2c-0.1,0.1-0.1,0.1-0.1,0.2c0,0.1,0,0.1-0.1,0.2c0,0.1-0.1,0.1-0.1,0.2
	c0,0.1,0,0.1,0,0.2c-0.2,0.7-0.5,1.4-1,2c-0.6,0.7-1.4,1.3-1.9,2c-0.6,0.8-1.4,1.3-2.2,1.9c-0.8,0.6-1.8,1.1-2.8,1.3
	c-0.6,0.1-1.1,0.2-1.7,0.1c-0.2,0-0.6,0-0.8-0.2c-0.1-0.1-0.1,0-0.1-0.1c0-0.1,0.1-0.3,0.1-0.4c0.2-0.6-0.7-0.8-0.9-0.3
	c-0.2,0.5-0.2,1.2,0.3,1.5c0.4,0.3,1.1,0.3,1.6,0.3c1.2,0,2.4-0.3,3.5-0.9c1-0.5,2.1-1.2,3-2c0.4-0.4,0.7-0.9,1.1-1.3
	c0.3-0.4,0.8-0.8,1.2-1.1c0.4-0.4,0.8-0.9,1.1-1.4c0.3-0.5,0.4-1.1,0.6-1.7c0.3-0.8,0.6-1.7,0.7-2.5C89,117.2,89,116.8,88.9,116.3z"
	/>
<path class="st4" d="M89.3,106.1c0-0.1,0-0.2-0.1-0.3c0-0.1,0-0.2-0.1-0.2c0-0.1,0-0.2,0-0.3c0-0.1-0.1-0.2-0.1-0.3
	c-0.1-0.2-0.3-0.4-0.6-0.3s-0.4,0.3-0.3,0.6c0,0.1,0.1,0.2,0.1,0.3c0,0.1,0,0.2,0.1,0.3c0,0.1,0,0.2,0.1,0.2c0,0.2,0,0.3,0,0.4
	c0,0.1,0.1,0.3,0.1,0.3c0.1,0.1,0.2,0.2,0.3,0.1c0.1,0,0.3-0.1,0.3-0.1c0.1-0.1,0.1-0.2,0.1-0.3C89.3,106.4,89.3,106.3,89.3,106.1z"
	/>
<path class="st4" d="M49.5,134.4c-0.3,0-0.5,0.2-0.5,0.5c0,0,0,0,0,0c-0.1,0-0.1,0.1-0.2,0.1c-0.2,0.1-0.4,0.1-0.5,0.1
	c-0.5,0.1-0.9,0.1-1.3,0.1c-1,0-1.9-0.2-2.8-0.4c-0.9-0.2-1.8-0.4-2.8-0.6c-0.5-0.1-1-0.3-1.4-0.6c0,0,0-0.1,0-0.1
	c0-0.6-0.8-0.9-1-1.4c-0.3-0.5-0.3-1.2-0.4-1.7c-0.2-1.3-0.2-2.7-0.1-4c0,0,0-0.1,0-0.2c0,0,0,0,0,0c0-0.1,0-0.1,0-0.2
	c0-0.1,0-0.1,0-0.2c0,0,0-0.1,0-0.1c0-0.1,0-0.2,0-0.3c0-0.1,0.1-0.2,0.2-0.3c0.3-0.3,0.8-0.4,1.2-0.5c0.5-0.2,0.9-0.3,1.4-0.4
	c0.5-0.2,0.8-0.4,1.2-0.7c0.7-0.5,1.6-0.8,2.2-1.4c0.6-0.6,1.1-1.3,1.8-1.8c0.2-0.2,0.2-0.5,0-0.7c-0.2-0.2-0.5-0.2-0.7,0
	c-0.7,0.6-1.2,1.3-1.9,1.9c-0.4,0.3-0.8,0.5-1.2,0.7c-0.4,0.2-0.7,0.5-1.1,0.8c-0.4,0.3-0.8,0.4-1.3,0.5c-0.5,0.1-1,0.3-1.5,0.5
	c-0.4,0.2-0.9,0.4-1.1,0.8c-0.1,0.3-0.2,0.5-0.2,0.8c-0.4,1.1-0.4,2.2-0.3,3.3c0,0.6,0.1,1.3,0.2,1.9c0.1,0.6,0,1.3,0.2,1.9
	c0.2,0.6,0.6,0.9,1.2,1.1c0.1,0.1,0.2,0.1,0.4,0.1c0.5,0.5,1.2,0.8,1.8,0.9c1.1,0.3,2.2,0.6,3.3,0.8c1.1,0.2,2.3,0.4,3.4,0.3
	c0.9-0.1,2.3-0.1,2.4-1.3C50,134.6,49.8,134.4,49.5,134.4z"/>
<path class="st2" d="M52.4,137.3c-1.1,0.1-2.2,0.3-3.3,0.4c-1,0.1-2.1-0.2-3.1-0.4c-2.1-0.4-4.1-0.8-6-1.6c-0.2-0.1-0.5-0.1-0.7,0.2
	c-0.1,0.2-0.1,0.6,0.2,0.7c1,0.4,2,0.8,3.1,1.1c1,0.3,2.1,0.4,3.2,0.6c1.1,0.2,2.1,0.4,3.2,0.4c1.1,0,2.3-0.3,3.4-0.4
	c0.3,0,0.5-0.2,0.5-0.5C52.9,137.5,52.7,137.3,52.4,137.3z"/>
<path class="st2" d="M29.6,135.1c-1,0.3-2.1,0.6-3,1.2c-0.5,0.3-0.9,0.5-1.3,0.9c-0.2,0.1-0.4,0.4-0.6,0.4c-0.3,0-0.6,0-0.9-0.1
	c-0.3,0-0.5,0.1-0.6,0.3c-0.1,0.2,0.1,0.6,0.3,0.6c0.6,0.1,1.3,0.2,1.8-0.1c0.2-0.1,0.5-0.3,0.7-0.5c0.2-0.2,0.5-0.3,0.7-0.5
	c1-0.6,2-1,3.1-1.3C30.4,135.9,30.2,135,29.6,135.1z"/>
<path class="st2" d="M10.6,118.9c0-0.5-0.6-0.6-0.8-0.3c-0.2-0.3-0.8-0.3-0.9,0.1c-0.4,1.2-0.7,2.5-0.4,3.7c0.1,0.6,0.3,1.2,0.3,1.8
	c0,0.5-0.1,1-0.1,1.5c0,0.1-0.1,0.1-0.1,0.2c0,0,0,0.1,0,0.1c0,0.1,0.1,0.2,0.1,0.2c0,0,0,0,0,0c0,0,0,0,0,0c0.3,0.4,1,0.1,0.9-0.4
	c-0.1-0.6,0-1.1,0-1.7c0,0,0,0,0-0.1c0,0.3,0,0.6,0,0.8c0,0.6,1,0.6,1,0C10.5,122.9,10.5,120.9,10.6,118.9z M9.3,122.4
	c-0.2-1,0-2,0.3-3c0,1.5,0,2.9,0,4.4C9.6,123.3,9.4,122.9,9.3,122.4z"/>
<path class="st2" d="M103.5,118.7c-0.3-2.2-1.3-4.2-2.7-5.9c-0.7-0.9-1.6-1.7-2.5-2.3c-1-0.7-2.1-1.1-3.3-1.3
	c-1.4-0.3-2.9-0.4-4.4-0.6c-0.3,0-0.5,0.2-0.5,0.5c0,0.3,0.2,0.4,0.5,0.5c1.2,0.2,2.4,0.3,3.7,0.5c1.1,0.2,2.2,0.4,3.2,1.1
	c1.8,1.1,3.2,2.8,4.1,4.6c0.4,0.9,0.7,1.8,0.9,2.7c0,0.1-0.1,0.2-0.1,0.3c0.1,1.3,0.1,2.7,0.1,4c-0.1,0.9-0.1,1.9-0.3,2.8
	c0,0.1-0.1,0.1-0.1,0.2c-0.3,1.9-0.7,4.2-2.6,5.3c-0.5,0.3-0.1,1.1,0.5,0.8c1.8-1,2.5-2.9,2.8-4.8c0,0,0,0,0,0
	c0.4-1.3,0.5-2.7,0.6-4.1c0.1-1.2,0.1-2.4,0-3.7C103.5,119,103.6,118.9,103.5,118.7z"/>
<path class="st2" d="M95.7,136.3c-0.5,0.4-1.1,0.9-1.8,1.1c-0.4,0.1-0.8,0.1-1.2,0.1c-0.4,0-0.9,0-1.3,0c-0.9,0-1.7,0-2.6,0
	c-0.8-0.1-1.6-0.4-2.4-0.7c-0.2-0.1-0.5-0.1-0.7,0.2c-0.1,0.2-0.1,0.6,0.2,0.7c0.9,0.4,1.7,0.7,2.7,0.8c1,0.1,2,0,2.9,0
	c0.9,0,1.9,0.1,2.8-0.2c0.8-0.3,1.5-0.8,2.1-1.3C96.9,136.6,96.2,135.9,95.7,136.3z"/>
<path class="st5" d="M101.5,122.4c0.1-1.2,0-2.4-0.2-3.6c-0.2-1-0.5-2-1.1-2.9c-0.3-0.4-0.5-0.8-0.8-1.3c-0.2-0.4-0.4-0.8-0.7-1.1
	c-0.4-0.4-0.9-0.4-1.5-0.4c-0.6,0-1.2,0.1-1.8,0.2c-0.6,0.1-0.3,1.1,0.3,0.9c0.6-0.1,1.2-0.2,1.8-0.2c0.5,0,0.7,0.2,0.9,0.7
	c0.3,0.5,0.5,0.9,0.8,1.4c0.3,0.5,0.6,0.9,0.7,1.4c0.4,1.1,0.6,2.3,0.6,3.5c0.1,1.1-0.1,2.3-0.6,3.3c0,0.1,0,0.1-0.1,0.2
	c-0.1,0.2-0.3,0.4-0.5,0.7c-0.3,0.3-0.7,0.6-1.1,0.8c-0.5,0.3-0.9,0.6-1.4,0.8c-0.5,0.3-0.1,1.1,0.5,0.8c0.9-0.6,2.1-1.1,2.8-1.9
	c0.4-0.4,0.6-0.9,0.9-1.4c0.3-0.5,0.5-1.1,0.5-1.7C101.7,122.6,101.6,122.5,101.5,122.4z"/>
<path class="st5" d="M91.1,130.2c-0.3-0.1-0.5,0.1-0.6,0.3c0,0,0,0,0,0c0,0-0.1,0.1-0.1,0.1c0,0-0.1,0.1-0.1,0.1
	c-0.1,0.1-0.3,0.1-0.4,0.2c-0.4,0.1-0.7,0.3-1.1,0.4c-0.2,0.1-0.5,0.2-0.7,0.3c0-0.1,0-0.3-0.1-0.4c-0.2-0.2-0.5-0.2-0.7,0
	c-0.3,0.2-0.5,0.5-0.7,0.8c-0.2,0.3-0.4,0.7-0.2,1c0.1,0.2,0.4,0.3,0.6,0.3c0.2,0,0.3-0.2,0.5-0.3c0.2-0.2,0.5-0.3,0.7-0.4
	c0.5-0.2,1.1-0.4,1.7-0.6c0.6-0.2,1.3-0.4,1.5-1.1C91.5,130.5,91.3,130.2,91.1,130.2z"/>
<path class="st0" d="M22.9,135.7c-0.1-0.5-0.2-1-0.3-1.5c0-0.3-0.2-0.5-0.5-0.5c-0.3,0-0.5,0.2-0.5,0.5c0,0.4,0.1,0.7,0.1,1.1
	c0,0-0.1,0-0.1,0c-0.3,0-0.6,0-0.9,0c-0.5,0-1.1-0.1-1.6-0.2c-0.3,0-0.5,0.1-0.6,0.3c-0.1,0.2,0.1,0.6,0.3,0.6
	c0.6,0.1,1.2,0.2,1.8,0.2c0.3,0,0.6,0,0.9,0c0.1,0,0.3-0.1,0.4,0c0,0,0.1,0,0.1,0c0.1,0,0.2,0,0.3,0C22.8,136.3,23,136,22.9,135.7z"
	/>
<path class="st0" d="M70.6,136.8c-0.1,0-0.1,0-0.2,0s-0.1,0-0.2,0c-0.7,0.1-1.4,0.4-2.1,0.5c-0.4,0.1-0.8,0.1-1.2,0.2
	c-0.4,0.1-0.8,0.3-1.2,0.4c-0.9,0.2-1.8,0.1-2.7,0.2c-0.9,0-1.9,0.1-2.8,0.1c-0.3,0-0.5,0.2-0.5,0.5c0,0.2,0.2,0.5,0.5,0.5
	c0.9-0.1,1.9-0.1,2.8-0.1c0.9,0,1.8,0,2.8-0.1c0.4-0.1,0.8-0.2,1.2-0.4c0.4-0.1,0.8-0.2,1.2-0.3c0.8-0.1,1.6-0.5,2.4-0.6
	C71.2,137.8,71.2,136.8,70.6,136.8z"/>
<path class="st2" d="M70.4,135.9c0.1-0.1,0.1-0.2,0.1-0.3c0-0.3-0.2-0.5-0.5-0.5c-1.1,0-2.3,0.3-3.3,0.9c-0.2,0.1-0.3,0.4-0.2,0.7
	c0.1,0.1,0.1,0.1,0.2,0.2c-0.6,0.1-1.2,0.2-1.7,0.3c-1.8,0.3-3.6,0.4-5.4,0.4c-0.6,0-0.6,1,0,1c1.9-0.1,3.8-0.1,5.6-0.5
	c0.9-0.2,1.8-0.3,2.8-0.6c0.4-0.1,0.8-0.2,1.2-0.3c0.4-0.1,0.9-0.2,1.3-0.4C71,136.5,70.8,135.9,70.4,135.9z M68.9,136.3
	c-0.4,0.1-0.8,0.2-1.2,0.3c0,0,0,0,0,0c0.7-0.3,1.3-0.5,2.1-0.5C69.5,136.2,69.2,136.2,68.9,136.3z"/>
<path class="st4" d="M69.9,133.8c-0.2-0.1-0.5-0.1-0.7,0.2c0,0,0,0.1,0,0.1c0,0,0,0,0,0s0,0-0.1,0c0,0,0,0,0,0c0,0-0.1,0.1-0.1,0.1
	c0,0,0,0-0.1,0c0,0,0,0,0,0c-0.3,0.1-0.5,0.2-0.8,0.3c-0.6,0.2-1.1,0.4-1.7,0.5c-0.2,0.1-0.4,0.3-0.3,0.6c0.1,0.2,0.3,0.4,0.6,0.3
	c0.6-0.2,1.2-0.4,1.8-0.6c0.6-0.2,1.2-0.3,1.5-0.9C70.2,134.2,70.1,133.9,69.9,133.8z"/>
<path class="st1" d="M28.5,30.3c1-0.2,2-0.4,3-0.5c0.5-0.1,0.6-0.2,0.5-0.7c-0.7-2.6,0.7-4.4,3.4-4.2c3.9,0.3,7.4,1.6,10.2,4.4
	c1.8,1.8,2.8,3.9,2.7,6.5c0,1.5-1.1,2.4-2.3,3.1c-1.1,0.6-2.1,0.2-3-0.5c-2.6-1.9-5.6-2.8-8.8-2.8c-3.9,0.1-7.6,0.9-11.1,2.6
	c-0.7,0.3-1.2,0.7-1.5,1.5c-0.6,1.3-2.3,1.8-3.8,1.3c-1.4-0.5-2-1.7-1.7-3.2c0.4-1.9,1.6-3.2,3.2-4.2c1.9-1.2,4-2,6.2-2.5
	C26.4,30.7,27.4,30.5,28.5,30.3C28.5,30.2,28.5,30.3,28.5,30.3z"/>
<path class="st1" d="M81.1,30.2c1,0.2,2.1,0.4,3.1,0.7c2.2,0.6,4.3,1.3,6.2,2.5c1.6,1,2.8,2.3,3.2,4.2c0.3,1.5-0.3,2.8-1.7,3.2
	c-1.5,0.5-3.1,0-3.8-1.3c-0.3-0.7-0.9-1.1-1.5-1.5c-3.5-1.8-7.3-2.5-11.1-2.6c-3.2-0.1-6.2,0.8-8.8,2.8c-1,0.7-1.9,1.1-3,0.5
	c-1.2-0.6-2.3-1.5-2.3-3.1c-0.1-2.5,0.9-4.7,2.7-6.5c2.8-2.8,6.3-4.1,10.2-4.4c2.7-0.2,4.1,1.6,3.4,4.2c-0.2,0.6,0,0.6,0.5,0.7
	C79.1,29.9,80.1,30.1,81.1,30.2C81.1,30.3,81.1,30.2,81.1,30.2z"/>
<path class="st1" d="M56.2,44.7c0-0.8-0.7-1.5-1.5-1.5c-0.8,0-1.5,0.7-1.5,1.5c0,2.2,0.1,4.4,0.1,6.7c0,0.8,0.7,1.5,1.5,1.5
	c0.8,0,1.5-0.7,1.5-1.5C56.2,49.1,56.2,46.9,56.2,44.7z"/>
<path class="st2" d="M28.7,87.1c-0.6-0.2-1,0.2-1.2,0.7c-1.3,3.5-1.9,7.1-1.9,10.8c0,1.3,2,1.3,2,0c0-3.5,0.6-7,1.8-10.3
	C29.6,87.8,29.2,87.3,28.7,87.1z"/>
<path class="st2" d="M25.3,105.7c-2.6,0.5-5.2,1.4-7.6,2.4c-2.3,1-4.7,1.8-6.3,3.9c-0.3,0.4-0.4,1,0,1.4c0.3,0.4,1.1,0.4,1.4,0
	c1.5-1.9,3.8-2.6,5.9-3.5c2.3-1,4.7-1.7,7.2-2.2C27.1,107.3,26.5,105.4,25.3,105.7z"/>
</svg>
